<?xml version="1.0" encoding="UTF-8"?>
<svg width="31px" height="20px" viewBox="0 0 31 20" version="1.1" xmlns="http://www.w3.org/2000/svg" xmlns:xlink="http://www.w3.org/1999/xlink">
    <!-- Generator: Sketch 53.2 (72643) - https://sketchapp.com -->
    <title>Group 49</title>
    <desc>Created with Sketch.</desc>
    <g id="Page-1" stroke="none" stroke-width="1" fill="none" fill-rule="evenodd">
        <g id="01-Vitalhotel-Startseite" transform="translate(-413.000000, -831.000000)" stroke="#2F94CB">
            <g id="Group-66" transform="translate(413.000000, 827.000000)">
                <g id="Group-67" transform="translate(0.000000, 4.000000)">
                    <g id="Group-49">
                        <path d="M4.69494983,1.49803196 C4.45781921,1.5418052 4.28571335,1.74858876 4.28571335,1.98972567 L4.28571429,15.0778339 C4.28571429,15.101839 4.28744287,15.1258128 4.29088663,15.1495696 C4.3305047,15.4228744 4.5841684,15.6123017 4.85748398,15.572662 C9.52486039,14.8960824 11.8769514,14.574084 12.1857143,14.574084 C12.494219,14.574084 13.2465659,14.7997127 14.6198528,15.282652 C14.6731434,15.3013925 14.7292246,15.3109661 14.7857143,15.3109661 C15.0618334,15.3109661 15.2856722,15.0871273 15.2856722,14.8110066 L15.2857143,1.65024223 C15.2857143,1.48246783 15.2015593,1.32585718 15.0616802,1.23326953 C14.3274141,0.747383364 13.3722162,0.5 12.1857143,0.5 C10.805111,0.5 8.30074032,0.832419266 4.69494983,1.49803196 Z" id="Rectangle-21"></path>
                        <path d="M15.6949498,1.49803196 C15.4578192,1.5418052 15.2857134,1.74858876 15.2857134,1.98972567 L15.2857143,15.0778339 C15.2857143,15.101839 15.2874429,15.1258128 15.2908866,15.1495696 C15.3305047,15.4228744 15.5841684,15.6123017 15.857484,15.572662 C20.5248604,14.8960824 22.8769514,14.574084 23.1857143,14.574084 C23.494219,14.574084 24.2465659,14.7997127 25.6198528,15.282652 C25.6731434,15.3013925 25.7292246,15.3109661 25.7857143,15.3109661 C26.0618334,15.3109661 26.2856722,15.0871273 26.2856722,14.8110066 L26.2857143,1.65024223 C26.2857143,1.48246783 26.2015593,1.32585718 26.0616802,1.23326953 C25.3274141,0.747383364 24.3722162,0.5 23.1857143,0.5 C21.805111,0.5 19.3007403,0.832419266 15.6949498,1.49803196 Z" id="Rectangle-21-Copy" transform="translate(20.785714, 8.000000) scale(-1, 1) translate(-20.785714, -8.000000) "></path>
                        <path d="M7.53571429,5.5 L12.0357143,5.5" id="Line-2" stroke-linecap="square"></path>
                        <path d="M18.5357143,5.5 L23.0357143,5.5" id="Line-2-Copy-3" stroke-linecap="square"></path>
                        <path d="M7.53571429,8.5 L12.0357143,8.5" id="Line-2-Copy" stroke-linecap="square"></path>
                        <path d="M18.5357143,8.5 L23.0357143,8.5" id="Line-2-Copy-4" stroke-linecap="square"></path>
                        <path d="M7.53571429,11.5 L12.0357143,11.5" id="Line-2-Copy-2" stroke-linecap="square"></path>
                        <path d="M18.5357143,11.5 L23.0357143,11.5" id="Line-2-Copy-5" stroke-linecap="square"></path>
                        <path d="M27.2857143,6.5 L27.2857143,7.5 L29.2857143,7.5 L29.2857143,6.5 L27.2857143,6.5 Z" id="Rectangle-22" fill="#D8D8D8"></path>
                        <path d="M1.28571429,6.5 L1.28571429,7.5 L3.28571429,7.5 L3.28571429,6.5 L1.28571429,6.5 Z" id="Rectangle-22-Copy" fill="#D8D8D8"></path>
                        <path d="M-4.71428571,11.5 L-4.71428571,12.5 L7.28571429,12.5 L7.28571429,11.5 L-4.71428571,11.5 Z" id="Rectangle-22-Copy-2" fill="#D8D8D8" transform="translate(1.285714, 12.000000) rotate(-270.000000) translate(-1.285714, -12.000000) "></path>
                        <path d="M1.28571429,18.5 L1.28571429,19.5 L29.2857143,19.5 L29.2857143,18.5 L1.28571429,18.5 Z" id="Rectangle-22-Copy-4" fill="#D8D8D8" transform="translate(15.285714, 19.000000) rotate(-180.000000) translate(-15.285714, -19.000000) "></path>
                        <path d="M23.2857143,11.5 L23.2857143,12.5 L35.2857143,12.5 L35.2857143,11.5 L23.2857143,11.5 Z" id="Rectangle-22-Copy-3" fill="#D8D8D8" transform="translate(29.285714, 12.000000) rotate(-270.000000) translate(-29.285714, -12.000000) "></path>
                    </g>
                </g>
            </g>
        </g>
    </g>
</svg>