<?xml version="1.0" encoding="UTF-8"?>
<svg width="28px" height="27px" viewBox="0 0 28 27" version="1.1" xmlns="http://www.w3.org/2000/svg" xmlns:xlink="http://www.w3.org/1999/xlink">
    <!-- Generator: Sketch 53.2 (72643) - https://sketchapp.com -->
    <title>Group 10</title>
    <desc>Created with Sketch.</desc>
    <defs>
        <polygon id="path-1" points="5.47945206e-06 0.0135276792 28.0000282 0.0135276792 28.0000282 27 5.47945206e-06 27"></polygon>
    </defs>
    <g id="Page-1" stroke="none" stroke-width="1" fill="none" fill-rule="evenodd">
        <g id="01-Vitalhotel-Startseite" transform="translate(-1083.000000, -824.000000)">
            <g id="Group-69" transform="translate(1083.000000, 824.000000)">
                <g id="Group-55">
                    <g id="Group-10">
                        <g id="Group-3">
                            <mask id="mask-2" fill="white">
                                <use xlink:href="#path-1"></use>
                            </mask>
                            <g id="Clip-2"></g>
                            <path d="M14.3238959,2.77254184 L20.2816493,3.46666224 C20.0310192,3.91155612 19.8421973,4.36824184 19.7248822,4.8209051 L19.1487726,4.24150714 L17.9879507,5.40884388 L21.4706356,8.9112949 L22.6316767,7.74373776 L21.4706356,6.57640102 C21.2211562,6.32546633 21.1608822,5.84839286 21.3053205,5.26728673 C21.4341425,4.74916224 21.7164986,4.19533163 22.1065808,3.67913571 L22.3306904,3.70530918 L23.164937,4.54418265 L24.0924438,12.595748 L12.0901973,24.6651337 L2.32186849,14.8419276 L14.3238959,2.77254184 Z M24.8125534,1.7400949 C25.3904164,1.59490102 25.8648822,1.65551327 26.1144164,1.90639286 C26.7219781,2.51736429 26.1654301,4.21142143 24.9210466,5.44256633 L24.7298685,3.78305816 L23.3868,2.43250714 C23.8555123,2.09886429 24.3485534,1.85674592 24.8125534,1.7400949 L24.8125534,1.7400949 Z M25.8146904,13.1985092 L25.147074,7.40348265 C27.7565534,5.50185612 28.8383068,2.31067653 27.2754027,0.739056122 C26.6081151,0.0679683673 25.5651562,-0.150952041 24.4143616,0.138388776 C23.3949644,0.394668367 22.3494849,1.02261122 21.4706356,1.90639286 C21.4599507,1.91735816 21.4497041,1.92854388 21.439074,1.93923367 L13.7242247,1.04040918 L5.47945206e-06,14.8419276 L12.0901973,27.0000276 L25.8146904,13.1985092 Z" id="Fill-1" fill="#2F94CB" mask="url(#mask-2)"></path>
                        </g>
                        <path d="M8.49988875,15.3332592 C8.04038269,15.3332592 7.66670375,14.9593619 7.66670375,14.5000834 C7.66670375,14.0405825 8.04038269,13.6667408 8.49988875,13.6667408 C8.95939482,13.6667408 9.33324063,14.0405825 9.33324063,14.5000834 C9.33324063,14.9593619 8.95961731,15.3332592 8.49988875,15.3332592 M8.49988875,12 C7.12153743,12 6,13.121525 6,14.5000834 C6,15.8784194 7.12153743,17 8.49988875,17 C9.87840694,17 11,15.8784194 11,14.5000834 C11,13.121525 9.87840694,12 8.49988875,12" id="Fill-4" fill="#2F94CB"></path>
                        <path d="M17.4998888,13.6667408 C17.9593948,13.6667408 18.3332406,14.0405825 18.3332406,14.5001391 C18.3332406,14.9594175 17.9593948,15.3332592 17.4998888,15.3332592 C17.0403271,15.3332592 16.6665369,14.9594175 16.6665369,14.5001391 C16.6665369,14.0405825 17.0403271,13.6667408 17.4998888,13.6667408 M17.4998888,17 C18.8784069,17 20,15.8784194 20,14.5001391 C20,13.1215806 18.8784069,12 17.4998888,12 C16.1213706,12 15,13.1215806 15,14.5001391 C15,15.8784194 16.1213706,17 17.4998888,17" id="Fill-6" fill="#2F94CB"></path>
                        <polygon id="Fill-8" fill="#2F94CB" points="13.0137769 9 15 9.26658582 12.9862903 19 11 18.7331976"></polygon>
                    </g>
                </g>
            </g>
        </g>
    </g>
</svg>