<?xml version="1.0" encoding="UTF-8"?>
<svg version="1.1" xmlns="http://www.w3.org/2000/svg" width="512" height="512" >
<path d="M0 0 C1.22589844 -0.10828125 1.22589844 -0.10828125 2.4765625 -0.21875 C9.99264156 1.64507554 16.40820901 10.37147118 21.77880859 15.7109375 C22.57655701 16.50050842 23.37430542 17.29007935 24.19622803 18.10357666 C26.80830417 20.69104112 29.41640408 23.28245519 32.0234375 25.875 C32.91827473 26.76451355 33.81311195 27.6540271 34.73506546 28.57049561 C38.49296662 32.3072353 42.24985009 36.04498356 46.00284386 39.78665161 C51.35672886 45.12426134 56.71896859 50.45315545 62.09303796 55.77044487 C66.34538416 59.97939771 70.58392712 64.20198933 74.81782913 68.42950439 C76.61494142 70.21989961 78.41630927 72.00603389 80.22199631 73.78778076 C82.74238764 76.2766199 85.24661815 78.78069954 87.74755859 81.2890625 C88.49456024 82.01965881 89.24156189 82.75025513 90.01119995 83.50299072 C94.01003613 87.55066242 96.69212052 90.62883756 97.375 96.5 C96.61452809 103.69005182 92.02257631 107.53527691 87.1015625 112.35693359 C86.24616882 113.2146637 85.39077515 114.0723938 84.50946045 114.95611572 C82.17131082 117.29559994 79.82262819 119.6234371 77.46831512 121.94658613 C75.00486437 124.38241499 72.55526247 126.83209511 70.10400391 129.28018188 C65.98963874 133.38535832 61.86624011 137.48126764 57.73632812 141.57080078 C51.90834678 147.34185339 46.09776858 153.13019213 40.29013443 158.92170978 C36.26707924 162.9323191 32.23991733 166.9388039 28.21196747 170.94449663 C27.23509398 171.91600682 26.25833361 172.88763077 25.28168488 173.85936689 C22.07453759 177.0500392 18.86268671 180.23591233 15.6484375 183.41943359 C14.83590515 184.22770599 14.0233728 185.03597839 13.18621826 185.8687439 C12.4459137 186.600448 11.70560913 187.3321521 10.94287109 188.08602905 C10.29837006 188.72495779 9.65386902 189.36388653 8.98983765 190.02217674 C5.60512863 193.11970281 2.26946345 192.88486684 -2.140625 192.859375 C-4.625 192.5 -4.625 192.5 -7.6875 190.125 C-10.30796103 186.57469796 -11.18015338 184.17350888 -11.07215881 179.67285156 C-9.280516 170.96683085 4.20801191 161.54420383 10.40234375 155.375 C11.76019348 154.01901842 13.11782033 152.6628136 14.47523499 151.30639648 C18.02558599 147.7598394 21.57893117 144.21629739 25.13293457 140.67340088 C28.76819078 137.0484264 32.40057099 133.42057251 36.03320312 129.79296875 C43.14434302 122.69251099 50.2586533 115.59523903 57.375 108.5 C56.10248778 108.49910437 56.10248778 108.49910437 54.80426824 108.49819064 C4.55084676 108.46231501 -45.70251478 108.40570426 -95.95588068 108.32207905 C-101.98670016 108.31206131 -108.01751991 108.30221723 -114.04833984 108.29248047 C-115.24899312 108.2905391 -116.4496464 108.28859772 -117.6866831 108.28659752 C-137.14040505 108.25555656 -156.59411519 108.23859102 -176.04785724 108.22680578 C-196.00167892 108.21440508 -215.95543854 108.18692814 -235.90922105 108.14538693 C-248.22679578 108.12022058 -260.54426762 108.10688501 -272.86186843 108.10857043 C-281.30271018 108.10860013 -289.74344695 108.09401683 -298.18424781 108.06783572 C-303.05784801 108.05315398 -307.9312329 108.0450174 -312.80485153 108.05419731 C-317.26485068 108.06245621 -321.72441633 108.05240689 -326.18435101 108.02766338 C-327.79951153 108.02195795 -329.41471284 108.02302876 -331.02986129 108.03148755 C-333.22327264 108.04199238 -335.41521713 108.02797366 -337.60853004 108.00780869 C-338.8274323 108.0062898 -340.04633456 108.00477092 -341.30217326 108.00320601 C-345.29898348 107.39793252 -347.48772151 106.00275123 -350.625 103.5 C-352.48226616 99.78546768 -352.21001089 95.54420575 -351.625 91.5 C-349.43477082 88.67575712 -347.79482793 87.08491397 -344.625 85.5 C-342.45206877 85.39957381 -340.27596688 85.36607242 -338.10072136 85.3613348 C-337.07917049 85.35707147 -337.07917049 85.35707147 -336.03698224 85.35272202 C-333.73231499 85.34433459 -331.42769774 85.34310366 -329.12301636 85.34178162 C-327.46311928 85.33721902 -325.80322335 85.33221944 -324.14332879 85.32681805 C-319.56441734 85.31319312 -314.98551334 85.30580603 -310.40658689 85.29939139 C-305.47541504 85.29140651 -300.5442588 85.27770219 -295.61309814 85.26467896 C-287.06366335 85.24288899 -278.514227 85.22475375 -269.9647789 85.20907402 C-257.60358614 85.18639829 -245.24241065 85.15825231 -232.88123251 85.12875474 C-212.82789309 85.08105061 -192.77454662 85.03779409 -172.72119141 84.99731445 C-153.23681083 84.95797386 -133.75243651 84.9165511 -114.26806641 84.87231445 C-113.06781963 84.86959018 -111.86757286 84.86686591 -110.63095497 84.86405908 C-104.60989951 84.85037984 -98.58884415 84.83665952 -92.56778884 84.82291877 C-42.58687229 84.70890969 7.39405783 84.60211016 57.375 84.5 C56.53783951 83.66506012 55.70067902 82.83012024 54.83815002 81.96987915 C46.96271704 74.1146866 39.08990211 66.25687862 31.21966648 58.39647865 C27.17307543 54.35511413 23.12555613 50.31468833 19.07592773 46.27636719 C15.17046298 42.38173946 11.26742074 38.48469932 7.3660717 34.58594894 C5.87454837 33.09627838 4.38214282 31.60749062 2.88885689 30.11958694 C0.80322573 28.04117698 -1.27929336 25.95969712 -3.36108398 23.87744141 C-3.98398819 23.25813248 -4.6068924 22.63882355 -5.24867249 22.00074768 C-10.52394654 16.7126415 -10.52394654 16.7126415 -10.9375 11.75 C-10.89766563 7.3761865 -9.43127251 4.8840345 -6.625 1.5 C-4.28486288 0.32993144 -2.61042048 0.16163594 0 0 Z " fill="#000000" transform="translate(383.625,159.5)"/>
</svg>
