<?xml version="1.0" encoding="UTF-8"?>
<svg width="16px" height="16px" viewBox="0 0 16 16" version="1.1" xmlns="http://www.w3.org/2000/svg" xmlns:xlink="http://www.w3.org/1999/xlink">
    <!-- Generator: Sketch 53.2 (72643) - https://sketchapp.com -->
    <title>Group 70</title>
    <desc>Created with Sketch.</desc>
    <g id="Page-1" stroke="none" stroke-width="1" fill="none" fill-rule="evenodd">
        <g id="01-Vitalhotel-Startseite" transform="translate(-1709.000000, -11.000000)">
            <g id="Group-72" transform="translate(1154.000000, 10.000000)">
                <g id="Group-71" transform="translate(555.000000, 0.000000)">
                    <g id="Group-70" transform="translate(0.000000, 1.000000)">
                        <rect id="Rectangle-Copy-5" stroke="#FFFFFF" x="0.5" y="0.5" width="15" height="15"></rect>
                        <g id="google-plus" transform="translate(3.000000, 3.000000)" fill="#FFFFFF" fill-rule="nonzero">
                            <path d="M9.99997351,4.4443944 L5.3333351,4.4443944 L5.3333351,5.99995761 L8.18045264,5.99995761 C7.75573352,7.3523264 6.49254384,8.33330243 4.99996026,8.33330243 C3.15898091,8.33330243 1.66666225,6.84086989 1.66666225,4.99996026 C1.66666225,3.15897115 3.15903389,1.66664459 4.99996026,1.66664459 C5.92701995,1.66664459 6.765517,2.04519023 7.36971916,2.65601861 L8.49885952,1.42869254 C7.59707317,0.545048494 6.36228287,0 4.99996026,0 C2.23857071,-2.64921014e-05 0,2.23855607 0,4.99996026 C0,7.76136445 2.23857071,10 4.99998675,10 C7.41888824,10 9.53668209,8.28214618 10,5.9999841 L10,4.4444209 L9.99997351,4.4443944 L9.99997351,4.4443944 Z" id="Path"></path>
                        </g>
                    </g>
                </g>
            </g>
        </g>
    </g>
</svg>