<?xml version="1.0" encoding="UTF-8"?>
<svg width="54px" height="54px" viewBox="0 0 54 54" version="1.1" xmlns="http://www.w3.org/2000/svg" xmlns:xlink="http://www.w3.org/1999/xlink">
    <!-- Generator: Sketch 53.2 (72643) - https://sketchapp.com -->
    <title>Group 35</title>
    <desc>Created with Sketch.</desc>
    <g id="Page-1" stroke="none" stroke-width="1" fill="none" fill-rule="evenodd">
        <g id="03-Vitalhotel-content-Highlights-1" transform="translate(-1192.000000, -4096.000000)">
            <g id="Group-15-Copy" transform="translate(0.000000, 3820.000000)">
                <g id="Group-37" transform="translate(1130.000000, 216.000000)">
                    <g id="Group-35" transform="translate(63.000000, 61.000000)">
                        <g id="Group-36" stroke="#2F94CB">
                            <circle id="Oval-3-Copy-2" cx="26" cy="26" r="26"></circle>
                        </g>
                        <g id="icn_holiday-check" transform="translate(11.000000, 15.000000)">
                            <path d="M14.6846154,0.442307692 C14.6846154,0.353846154 14.7730769,0.265384615 14.8615385,0.265384615 L15.6576923,0.265384615 L15.6576923,1.15 C15.6576923,1.23846154 15.5692308,1.32692308 15.4807692,1.32692308 L14.6846154,1.32692308 L14.6846154,0.442307692 Z M14.6846154,2.65384615 C14.6846154,2.56538462 14.7730769,2.47692308 14.8615385,2.47692308 L15.3923077,2.47692308 C15.4807692,2.47692308 15.5692308,2.56538462 15.5692308,2.65384615 L15.5692308,7.51923077 L14.8615385,7.51923077 C14.7730769,7.51923077 14.6846154,7.43076923 14.6846154,7.34230769 L14.6846154,2.65384615 Z M12.7384615,0.265384615 C12.7384615,0.176923077 12.8269231,0.0884615385 12.9153846,0.0884615385 L13.4461538,0.0884615385 C13.5346154,0.0884615385 13.6230769,0.176923077 13.6230769,0.265384615 L13.6230769,7.51923077 L12.9153846,7.51923077 C12.8269231,7.51923077 12.7384615,7.43076923 12.7384615,7.34230769 L12.7384615,0.265384615 Z M9.37692308,2.38846154 C10.8807692,2.38846154 11.9423077,3.53846154 11.9423077,5.04230769 C11.9423077,6.45769231 10.8807692,7.69615385 9.37692308,7.69615385 C7.87307692,7.69615385 6.81153846,6.45769231 6.81153846,5.04230769 C6.81153846,3.45 7.87307692,2.38846154 9.37692308,2.38846154 Z M0.884615385,0.796153846 C0.884615385,0.707692308 0.973076923,0.619230769 1.06153846,0.619230769 L1.68076923,0.619230769 C1.76923077,0.619230769 1.85769231,0.707692308 1.85769231,0.796153846 L1.85769231,3.53846154 L5.21923077,3.53846154 L5.21923077,0.796153846 C5.21923077,0.707692308 5.30769231,0.619230769 5.39615385,0.619230769 L5.92692308,0.619230769 C6.01538462,0.619230769 6.10384615,0.707692308 6.10384615,0.796153846 L6.10384615,7.34230769 L6.19230769,7.34230769 C6.19230769,7.43076923 6.10384615,7.51923077 6.01538462,7.51923077 L5.39615385,7.51923077 C5.30769231,7.51923077 5.21923077,7.43076923 5.21923077,7.34230769 L5.21923077,4.42307692 L1.85769231,4.42307692 L1.85769231,7.34230769 C1.85769231,7.43076923 1.76923077,7.51923077 1.68076923,7.51923077 L1.06153846,7.51923077 C0.973076923,7.51923077 0.884615385,7.43076923 0.884615385,7.34230769 L0.884615385,0.796153846 Z M5.04230769,19.9038462 L3.98076923,20.7 L4.33461538,22.0269231 C4.33461538,22.2038462 4.24615385,22.2923077 4.06923077,22.2038462 L2.91923077,21.4961538 L1.76923077,22.2038462 C1.59230769,22.2923077 1.41538462,22.2038462 1.50384615,22.0269231 L1.85769231,20.7 L0.796153846,19.9038462 C0.619230769,19.8153846 0.707692308,19.6384615 0.884615385,19.6384615 L2.3,19.6384615 L2.74230769,18.4 C2.74230769,18.3115385 2.83076923,18.2230769 3.00769231,18.2230769 C3.09615385,18.2230769 3.18461538,18.2230769 3.18461538,18.3115385 L3.62692308,19.55 L4.95384615,19.6384615 C5.13076923,19.6384615 5.21923077,19.8153846 5.04230769,19.9038462 Z M4.42307692,16.5423077 C2.21153846,16.5423077 0.796153846,15.1269231 0.796153846,12.9153846 C0.796153846,10.7923077 2.38846154,9.37692308 4.51153846,9.37692308 C4.95384615,9.37692308 5.48461538,9.46538462 5.92692308,9.64230769 C6.01538462,9.64230769 6.01538462,9.73076923 6.01538462,9.81923077 L5.92692308,10.5269231 C5.92692308,10.6153846 5.83846154,10.6153846 5.83846154,10.6153846 C5.39615385,10.4384615 4.95384615,10.2615385 4.51153846,10.2615385 C2.91923077,10.2615385 1.85769231,11.4115385 1.85769231,13.0038462 C1.85769231,14.5961538 3.00769231,15.7461538 4.51153846,15.7461538 C4.95384615,15.7461538 5.48461538,15.6576923 5.92692308,15.4807692 C6.01538462,15.4807692 6.01538462,15.5692308 6.01538462,15.5692308 L6.01538462,16.1884615 C6.01538462,16.2769231 5.92692308,16.3653846 5.92692308,16.3653846 C5.30769231,16.5423077 4.77692308,16.5423077 4.42307692,16.5423077 Z M10.35,19.9038462 L9.28846154,20.7 L9.64230769,22.0269231 C9.64230769,22.2038462 9.55384615,22.2923077 9.37692308,22.2038462 L8.22692308,21.4961538 L7.07692308,22.2038462 C6.9,22.2923077 6.72307692,22.2038462 6.81153846,22.0269231 L7.16538462,20.7 L6.10384615,19.9038462 C5.92692308,19.8153846 6.01538462,19.6384615 6.19230769,19.6384615 L7.51923077,19.6384615 L7.96153846,18.4 C8.05,18.3115385 8.22692308,18.2230769 8.31538462,18.2230769 C8.40384615,18.2230769 8.49230769,18.2230769 8.49230769,18.3115385 L8.93461538,19.55 L10.2615385,19.6384615 C10.4384615,19.6384615 10.5269231,19.8153846 10.35,19.9038462 Z M10.9692308,16.3653846 L10.4384615,16.3653846 C10.35,16.3653846 10.2615385,16.2769231 10.2615385,16.1884615 L10.2615385,13.8 C10.2615385,12.65 9.99615385,12.0307692 9.2,12.0307692 C8.13846154,12.0307692 7.69615385,12.9153846 7.69615385,14.1538462 L7.69615385,16.2769231 C7.69615385,16.3653846 7.60769231,16.4538462 7.51923077,16.4538462 L6.98846154,16.4538462 C6.9,16.4538462 6.81153846,16.3653846 6.81153846,16.2769231 L6.81153846,9.2 C6.81153846,9.11153846 6.9,9.02307692 6.98846154,9.02307692 L7.51923077,9.02307692 C7.60769231,9.02307692 7.69615385,9.11153846 7.69615385,9.2 L7.69615385,12.1192308 C8.05,11.5884615 8.58076923,11.2346154 9.28846154,11.2346154 C10.6153846,11.2346154 11.2346154,12.0307692 11.2346154,13.4461538 L11.2346154,16.1884615 L11.1461538,16.1884615 C11.1461538,16.2769231 11.0576923,16.3653846 10.9692308,16.3653846 Z M15.4807692,19.9923077 L14.4192308,20.7884615 L14.7730769,22.1153846 C14.7730769,22.2923077 14.6846154,22.3807692 14.5076923,22.2923077 L13.3576923,21.5846154 L12.2076923,22.2923077 C12.0307692,22.3807692 11.8538462,22.2923077 11.9423077,22.1153846 L12.2961538,20.7884615 L11.2346154,19.9923077 C11.0576923,19.9038462 11.1461538,19.7269231 11.3230769,19.7269231 L12.65,19.6384615 L13.0923077,18.4 C13.1807692,18.3115385 13.1807692,18.2230769 13.4461538,18.3115385 C13.5346154,18.3115385 13.6230769,18.3115385 13.6230769,18.4 L14.0653846,19.6384615 L15.3923077,19.7269231 C15.5692308,19.7269231 15.6576923,19.9038462 15.4807692,19.9923077 Z M16.1,16.1 C16.1,16.1884615 16.0115385,16.2769231 16.0115385,16.2769231 C15.6576923,16.3653846 15.3038462,16.5423077 14.5076923,16.5423077 C12.7384615,16.5423077 11.8538462,15.4807692 11.8538462,13.8 C11.8538462,12.2961538 12.8269231,11.2346154 14.2423077,11.2346154 C15.9230769,11.2346154 16.4538462,12.3846154 16.4538462,13.9769231 C16.4538462,14.0653846 16.3653846,14.0653846 16.3653846,14.0653846 L12.8269231,14.0653846 C12.8269231,15.0384615 13.6230769,15.7461538 14.5076923,15.7461538 C15.0384615,15.7461538 15.5692308,15.5692308 15.9230769,15.3038462 C15.9230769,15.3038462 15.9230769,15.3038462 16.0115385,15.3038462 C16.1,15.3038462 16.1,15.3923077 16.1,15.3923077 L16.1,16.1 Z M20.5230769,19.9923077 L19.4615385,20.7884615 L19.9923077,22.1153846 C19.9923077,22.2923077 19.9038462,22.3807692 19.7269231,22.2923077 L18.5769231,21.5846154 L17.4269231,22.2923077 C17.25,22.3807692 17.0730769,22.2923077 17.1615385,22.1153846 L17.5153846,20.7884615 L16.4538462,19.9923077 C16.2769231,19.9038462 16.3653846,19.7269231 16.5423077,19.7269231 L17.8692308,19.6384615 L18.3115385,18.4 C18.3115385,18.3115385 18.4,18.2230769 18.4,18.3115385 C18.4884615,18.3115385 18.5769231,18.3115385 18.5769231,18.4 L19.1076923,19.6384615 L20.4346154,19.7269231 C20.6115385,19.7269231 20.7,19.9038462 20.5230769,19.9923077 Z M20.7,16.1884615 C20.7,16.2769231 20.6115385,16.3653846 20.5230769,16.3653846 C20.1692308,16.4538462 19.8153846,16.5423077 19.55,16.5423077 C18.0461538,16.5423077 16.9846154,15.3038462 16.9846154,13.8884615 C16.9846154,12.3846154 18.0461538,11.2346154 19.55,11.2346154 C19.8153846,11.2346154 20.2576923,11.3230769 20.5230769,11.4115385 C20.6115385,11.4115385 20.7,11.5 20.7,11.5884615 L20.6115385,12.0307692 C20.6115385,12.1192308 20.5230769,12.1192308 20.5230769,12.1192308 C20.1692308,12.0307692 19.9038462,11.9423077 19.6384615,11.9423077 C18.5769231,11.9423077 18.0461538,12.9153846 18.0461538,13.8884615 C18.0461538,14.7730769 18.5769231,15.8346154 19.7269231,15.8346154 C19.9923077,15.8346154 20.3461538,15.7461538 20.6115385,15.6576923 C20.6115385,15.6576923 20.6115385,15.6576923 20.7,15.6576923 C20.7884615,15.6576923 20.7884615,15.6576923 20.7884615,15.7461538 L20.7,16.1884615 Z M20.9653846,7.34230769 C20.9653846,7.43076923 20.8769231,7.51923077 20.7884615,7.51923077 L20.3461538,7.51923077 C20.3461538,7.51923077 20.1692308,7.43076923 20.1692308,7.34230769 L20.1692308,6.81153846 C19.9038462,7.16538462 19.3730769,7.60769231 18.4,7.60769231 C16.8961538,7.60769231 16.1884615,6.28076923 16.1884615,4.86538462 C16.1884615,3.53846154 16.8961538,2.3 18.4,2.3 C19.2846154,2.3 19.8153846,2.65384615 20.0807692,3.09615385 L20.0807692,0.265384615 C20.0807692,0.176923077 20.1692308,0.0884615385 20.2576923,0.0884615385 L20.7884615,0.0884615385 C20.8769231,0.0884615385 20.9653846,0.176923077 20.9653846,0.265384615 L20.9653846,7.34230769 Z M25.6538462,19.9038462 L24.5923077,20.7 L24.9461538,22.0269231 C24.9461538,22.2038462 24.8576923,22.2923077 24.6807692,22.2038462 L23.5307692,21.4961538 L22.3807692,22.2038462 C22.2038462,22.2923077 22.0269231,22.2038462 22.1153846,22.0269231 L22.4692308,20.7884615 L21.4076923,19.9923077 C21.2307692,19.9038462 21.3192308,19.7269231 21.4961538,19.7269231 L22.8230769,19.6384615 L23.2653846,18.4 C23.3538462,18.3115385 23.3538462,18.2230769 23.6192308,18.2230769 C23.7076923,18.2230769 23.7961538,18.2230769 23.7961538,18.3115385 L24.2384615,19.55 L25.5653846,19.6384615 C25.7423077,19.6384615 25.8307692,19.8153846 25.6538462,19.9038462 Z M25.7423077,16.2769231 C25.7423077,16.3653846 25.6538462,16.3653846 25.7423077,16.2769231 L24.6807692,16.4538462 C24.5923077,16.4538462 24.5923077,16.4538462 24.5038462,16.3653846 L22.2923077,13.8 L22.2923077,16.1884615 C22.2923077,16.2769231 22.2038462,16.3653846 22.1153846,16.3653846 L21.5846154,16.3653846 C21.4961538,16.3653846 21.4076923,16.2769231 21.4076923,16.1884615 L21.4076923,9.11153846 C21.4076923,9.02307692 21.4961538,8.93461538 21.5846154,8.93461538 L22.1153846,8.93461538 C22.2038462,8.93461538 22.2923077,9.02307692 22.2923077,9.11153846 L22.2923077,13.3576923 L24.2384615,11.4115385 C24.2384615,11.3230769 24.3269231,11.3230769 24.4153846,11.3230769 L25.3884615,11.3230769 C25.4769231,11.3230769 25.4769231,11.4115385 25.4769231,11.4115385 L25.4769231,11.5 L23.2653846,13.5346154 L25.7423077,16.2769231 L25.7423077,16.2769231 Z M26.0961538,7.34230769 C26.0961538,7.43076923 26.0076923,7.51923077 25.9192308,7.51923077 L25.4769231,7.51923077 C25.3884615,7.51923077 25.3,7.43076923 25.3,7.34230769 L25.3,6.9 C25.1230769,7.16538462 24.5923077,7.69615385 23.7076923,7.69615385 C22.6461538,7.69615385 21.85,7.25384615 21.85,6.10384615 C21.85,4.86538462 23.2653846,4.42307692 24.2384615,4.42307692 C24.5923077,4.42307692 24.8576923,4.42307692 25.2115385,4.42307692 C25.2115385,3.53846154 24.8576923,3.09615385 23.9730769,3.09615385 C23.5307692,3.09615385 23.1769231,3.18461538 22.8230769,3.45 L22.7346154,3.45 C22.6461538,3.45 22.5576923,3.36153846 22.5576923,3.27307692 L22.5576923,2.91923077 C22.5576923,2.83076923 22.5576923,2.83076923 22.6461538,2.83076923 C23.0884615,2.56538462 23.6192308,2.38846154 24.2384615,2.38846154 C25.6538462,2.38846154 26.2730769,3.09615385 26.2730769,4.51153846 L26.2730769,6.63461538 C26.0961538,6.9 26.0961538,7.16538462 26.0961538,7.34230769 Z M29.1923077,7.43076923 L28.3076923,10.6153846 C28.3076923,10.7038462 28.2192308,10.7038462 28.1307692,10.6153846 L27.6,10.1730769 C27.5115385,10.0846154 27.5115385,9.99615385 27.5115385,9.90769231 L28.3961538,7.69615385 C28.3961538,7.78461538 28.2192308,7.43076923 28.1307692,7.25384615 L26.45,2.65384615 C26.45,2.65384615 26.45,2.65384615 26.45,2.56538462 C26.45,2.47692308 26.5384615,2.47692308 26.5384615,2.47692308 L27.2461538,2.47692308 C27.3346154,2.47692308 27.4230769,2.56538462 27.4230769,2.65384615 L28.75,6.72307692 L30.0769231,2.65384615 C30.0769231,2.56538462 30.1653846,2.56538462 30.2538462,2.56538462 L30.8730769,2.56538462 C30.9615385,2.56538462 30.9615385,2.65384615 30.9615385,2.65384615 L29.1923077,7.43076923 Z" id="Shape" fill="#2F94CB" fill-rule="nonzero"></path>
                            <path d="M14.2423077,12.0307692 C13.2692308,12.0307692 12.9153846,12.7384615 12.8269231,13.4461538 L15.4807692,13.4461538 C15.4807692,12.65 15.0384615,12.0307692 14.2423077,12.0307692 Z" id="Path" fill="#FFFFFF"></path>
                            <path d="M7.87307692,5.04230769 C7.87307692,5.57307692 8.05,6.19230769 8.49230769,6.54615385 C8.75769231,6.81153846 9.02307692,6.9 9.46538462,6.98846154 C10.5269231,6.98846154 11.0576923,5.92692308 11.0576923,5.04230769 C11.0576923,4.06923077 10.4384615,3.09615385 9.46538462,3.09615385 C8.49230769,3.09615385 7.87307692,4.06923077 7.87307692,5.04230769 Z" id="Shape" fill="#FFFFFF" fill-rule="nonzero"></path>
                            <path d="M22.7346154,6.10384615 C22.7346154,6.63461538 23.2653846,6.9 23.7076923,6.9 C24.6807692,6.9 25.1230769,6.36923077 25.1230769,5.57307692 L25.1230769,5.13076923 C24.9461538,5.13076923 24.6807692,5.13076923 24.5038462,5.13076923 C23.9730769,5.13076923 22.7346154,5.21923077 22.7346154,6.10384615 Z" id="Shape" fill="#FFFFFF" fill-rule="nonzero"></path>
                            <path d="M18.6653846,3.09615385 C17.6923077,3.09615385 17.25,4.06923077 17.25,4.95384615 C17.25,5.75 17.6923077,6.9 18.6653846,6.9 C19.7269231,6.9 20.1692308,5.83846154 20.1692308,5.04230769 C20.1692308,4.06923077 19.6384615,3.09615385 18.6653846,3.09615385 Z" id="Shape" fill="#FFFFFF" fill-rule="nonzero"></path>
                        </g>
                    </g>
                </g>
            </g>
        </g>
    </g>
</svg>