<?xml version="1.0" encoding="UTF-8"?>
<svg width="15px" height="12px" viewBox="0 0 15 12" version="1.1" xmlns="http://www.w3.org/2000/svg" xmlns:xlink="http://www.w3.org/1999/xlink">
    <!-- Generator: Sketch 53.2 (72643) - https://sketchapp.com -->
    <title>mail</title>
    <desc>Created with Sketch.</desc>
    <g id="Page-1" stroke="none" stroke-width="1" fill="none" fill-rule="evenodd">
        <g id="01-Vitalhotel-Startseite" transform="translate(-1452.000000, -15.000000)" fill="#FFFFFF">
            <g id="Group-72" transform="translate(1154.000000, 10.000000)">
                <g id="Group-48" transform="translate(298.000000, 2.000000)">
                    <g id="mail" transform="translate(0.000000, 3.000000)">
                        <path d="M13.5,0 L1.5,0 C0.675,0 0,0.675 0,1.5 L0,10.5 C0,11.325 0.675,12 1.5,12 L13.5,12 C14.325,12 15,11.325 15,10.5 L15,1.5 C15,0.675 14.325,0 13.5,0 L13.5,0 Z M13.5,3 L7.5,6.75 L1.5,3 L1.5,1.5 L7.5,5.25 L13.5,1.5 L13.5,3 L13.5,3 Z" id="Shape"></path>
                    </g>
                </g>
            </g>
        </g>
    </g>
</svg>