<?xml version="1.0" encoding="UTF-8"?>
<svg width="54px" height="54px" viewBox="0 0 54 54" version="1.1" xmlns="http://www.w3.org/2000/svg" xmlns:xlink="http://www.w3.org/1999/xlink">
    <!-- Generator: Sketch 53.2 (72643) - https://sketchapp.com -->
    <title>Group 17</title>
    <desc>Created with Sketch.</desc>
    <g id="Page-1" stroke="none" stroke-width="1" fill="none" fill-rule="evenodd">
        <g id="03-Vitalhotel-content-Highlights-1" transform="translate(-1193.000000, -4035.000000)">
            <g id="Group-15-Copy" transform="translate(0.000000, 3820.000000)">
                <g id="Group-37" transform="translate(1130.000000, 216.000000)">
                    <g id="Group-17" transform="translate(64.000000, 0.000000)">
                        <g id="Group" transform="translate(14.000000, 18.000000)" fill="#2F94CB">
                            <path d="M9.57859848,12.0711723 L9.57859848,4.9056037 L15.8731061,8.48852489 L9.57859848,12.0711723 Z M23.5800464,2.65097833 C23.3030881,1.60745425 22.4869915,0.785723526 21.4508608,0.506838908 C19.5727713,0 12.0416667,0 12.0416667,0 C12.0416667,0 4.51056203,0 2.63247254,0.506838908 C1.59634186,0.785723526 0.780245265,1.60745425 0.503286932,2.65097833 C0,4.54224593 0,8.48838798 0,8.48838798 C0,8.48838798 0,12.4343931 0.503286932,14.3257976 C0.780245265,15.3693217 1.59634186,16.1910524 2.63247254,16.470074 C4.51056203,16.976776 12.0416667,16.976776 12.0416667,16.976776 C12.0416667,16.976776 19.5727713,16.976776 21.4508608,16.470074 C22.4869915,16.1910524 23.3030881,15.3693217 23.5800464,14.3257976 C24.0833333,12.4343931 24.0833333,8.48838798 24.0833333,8.48838798 C24.0833333,8.48838798 24.0833333,4.54224593 23.5800464,2.65097833 L23.5800464,2.65097833 Z" id="Fill-1"></path>
                        </g>
                        <circle id="Oval-3-Copy" stroke="#2F94CB" cx="26" cy="26" r="26"></circle>
                    </g>
                </g>
            </g>
        </g>
    </g>
</svg>