<svg width="18" height="7" viewBox="0 0 18 7" fill="none" xmlns="http://www.w3.org/2000/svg">
<mask id="mask0" mask-type="alpha" maskUnits="userSpaceOnUse" x="1" y="0" width="17" height="7">
<path fill-rule="evenodd" clip-rule="evenodd" d="M17.0234 7L1.00185 7V0L17.0234 0V7Z" fill="white"/>
</mask>
<g mask="url(#mask0)">
<path fill-rule="evenodd" clip-rule="evenodd" d="M10.1846 2.67527C11.5723 3.48103 12.4834 3.99282 12.9183 4.21089C13.6084 4.56087 14.2099 4.77022 14.723 4.8393C15.2361 4.9085 15.6654 4.78752 16.0112 4.47684C16.2949 4.22218 16.4566 3.91068 16.4968 3.54187C16.5369 3.1733 16.4837 2.80684 16.3368 2.4425C16.19 2.07828 15.9968 1.77278 15.757 1.52577C15.5524 1.31512 15.2947 1.1153 14.9839 0.926536C14.6732 0.737776 14.4436 0.681878 14.2952 0.758488C14.4837 1.02892 14.5904 1.31371 14.6152 1.61273C14.6402 1.91164 14.5194 2.18078 14.2528 2.42026C13.9806 2.6648 13.6675 2.76577 13.313 2.7234C12.9587 2.68092 12.641 2.51511 12.3603 2.22608C12.0737 1.93118 11.9292 1.61544 11.9267 1.27958C11.9242 0.943482 12.0647 0.648221 12.3482 0.39356C12.6601 0.113363 13.0378 -0.0171452 13.4808 0.00180149C13.9241 0.0209832 14.369 0.148431 14.8156 0.384264C15.2623 0.620096 15.6522 0.90959 15.9855 1.25286C16.3482 1.62627 16.6268 2.05498 16.8215 2.53982C17.0162 3.02455 17.0702 3.51728 16.9832 4.01812C16.8963 4.51897 16.6261 4.9731 16.1724 5.38075C15.5827 5.91043 14.8747 6.14885 14.0485 6.09625C13.2223 6.04353 12.2551 5.71449 11.1467 5.10902C10.8393 4.93427 10.2584 4.58499 9.40439 4.06108C8.55067 3.53705 7.81026 3.09445 7.18302 2.73305C6.55628 2.37189 5.95891 2.06839 5.39115 1.82279C4.56324 1.47305 3.89906 1.30017 3.3986 1.30417C2.89838 1.30829 2.48932 1.45292 2.17179 1.73818C1.84851 2.0285 1.64881 2.39401 1.57234 2.83473C1.49611 3.27532 1.53942 3.72969 1.70204 4.19806C1.86503 4.66631 2.13043 5.0902 2.49887 5.46948C2.80294 5.78263 3.03237 5.92043 3.18715 5.88289C3.1086 5.64894 3.10064 5.41935 3.16317 5.19422C3.2257 4.96887 3.33644 4.78481 3.49514 4.6423C3.73326 4.42836 4.03415 4.34998 4.3972 4.40694C4.76074 4.4639 5.07961 4.63395 5.35444 4.91697C5.61189 5.18199 5.75897 5.47831 5.7958 5.80593C5.83276 6.13355 5.71223 6.4221 5.43434 6.67182C5.15083 6.92648 4.81898 7.03287 4.43856 6.99121C4.05838 6.94955 3.67807 6.80916 3.29728 6.57038C2.91686 6.33161 2.56849 6.04965 2.2528 5.72449C1.75576 5.2127 1.40335 4.66654 1.19558 4.08638C0.987934 3.50633 0.947187 2.93958 1.07347 2.3866C1.19987 1.83327 1.50406 1.34018 1.9858 0.907354C2.54169 0.408035 3.18006 0.133486 3.90102 0.083354C4.62222 0.0332222 5.36472 0.161024 6.12875 0.466758C6.74264 0.727185 7.93506 1.37007 9.70553 2.39519L10.1846 2.67527Z" fill="#2F94CB"/>
</g>
</svg>
