<svg width="240" height="239" viewBox="0 0 240 239" fill="none" xmlns="http://www.w3.org/2000/svg">
<path d="M2.60615 5.21234C4.04549 5.21234 5.2123 4.04549 5.2123 2.60615C5.2123 1.16681 4.04549 0 2.60615 0C1.16681 0 0 1.16681 0 2.60615C0 4.04549 1.16681 5.21234 2.60615 5.21234Z" fill="#0D8BB2" fill-opacity="0.25"/>
<path d="M26.0861 5.21234C27.5255 5.21234 28.6923 4.04549 28.6923 2.60615C28.6923 1.16681 27.5255 0 26.0861 0C24.6468 0 23.48 1.16681 23.48 2.60615C23.48 4.04549 24.6468 5.21234 26.0861 5.21234Z" fill="#0D8BB2" fill-opacity="0.25"/>
<path d="M49.5666 5.21234C51.0059 5.21234 52.1727 4.04549 52.1727 2.60615C52.1727 1.16681 51.0059 0 49.5666 0C48.1273 0 46.9604 1.16681 46.9604 2.60615C46.9604 4.04549 48.1273 5.21234 49.5666 5.21234Z" fill="#0D8BB2" fill-opacity="0.25"/>
<path d="M73.0462 5.21234C74.4855 5.21234 75.6523 4.04549 75.6523 2.60615C75.6523 1.16681 74.4855 0 73.0462 0C71.6068 0 70.4399 1.16681 70.4399 2.60615C70.4399 4.04549 71.6068 5.21234 73.0462 5.21234Z" fill="#0D8BB2" fill-opacity="0.25"/>
<path d="M99.1322 2.60615C99.1322 4.04445 97.9644 5.21234 96.5261 5.21234C95.0878 5.21234 93.9199 4.04445 93.9199 2.60615C93.9199 1.16785 95.0878 0 96.5261 0C97.9644 0 99.1322 1.16785 99.1322 2.60615Z" fill="#0D8BB2" fill-opacity="0.25"/>
<path d="M119.994 5.21234C121.434 5.21234 122.601 4.04549 122.601 2.60615C122.601 1.16681 121.434 0 119.994 0C118.555 0 117.388 1.16681 117.388 2.60615C117.388 4.04549 118.555 5.21234 119.994 5.21234Z" fill="#0D8BB2" fill-opacity="0.25"/>
<path d="M143.474 5.21234C144.913 5.21234 146.08 4.04549 146.08 2.60615C146.08 1.16681 144.913 0 143.474 0C142.034 0 140.868 1.16681 140.868 2.60615C140.868 4.04549 142.034 5.21234 143.474 5.21234Z" fill="#0D8BB2" fill-opacity="0.25"/>
<path d="M166.954 5.21234C168.393 5.21234 169.56 4.04549 169.56 2.60615C169.56 1.16681 168.393 0 166.954 0C165.514 0 164.348 1.16681 164.348 2.60615C164.348 4.04549 165.514 5.21234 166.954 5.21234Z" fill="#0D8BB2" fill-opacity="0.25"/>
<path d="M190.434 5.21234C191.873 5.21234 193.04 4.04549 193.04 2.60615C193.04 1.16681 191.873 0 190.434 0C188.994 0 187.828 1.16681 187.828 2.60615C187.828 4.04549 188.994 5.21234 190.434 5.21234Z" fill="#0D8BB2" fill-opacity="0.25"/>
<path d="M213.914 5.21234C215.353 5.21234 216.52 4.04549 216.52 2.60615C216.52 1.16681 215.353 0 213.914 0C212.474 0 211.308 1.16681 211.308 2.60615C211.308 4.04549 212.474 5.21234 213.914 5.21234Z" fill="#0D8BB2" fill-opacity="0.25"/>
<path d="M237.394 5.21234C238.834 5.21234 240 4.04549 240 2.60615C240 1.16681 238.834 0 237.394 0C235.955 0 234.788 1.16681 234.788 2.60615C234.788 4.04549 235.955 5.21234 237.394 5.21234Z" fill="#0D8BB2" fill-opacity="0.25"/>
<path d="M2.60615 26.4246C4.04549 26.4246 5.2123 25.2578 5.2123 23.8184C5.2123 22.3791 4.04549 21.2123 2.60615 21.2123C1.16681 21.2123 0 22.3791 0 23.8184C0 25.2578 1.16681 26.4246 2.60615 26.4246Z" fill="#0D8BB2" fill-opacity="0.25"/>
<path d="M26.0861 26.4249C27.5255 26.4249 28.6923 25.2581 28.6923 23.8188C28.6923 22.3795 27.5255 21.2126 26.0861 21.2126C24.6468 21.2126 23.48 22.3795 23.48 23.8188C23.48 25.2581 24.6468 26.4249 26.0861 26.4249Z" fill="#0D8BB2" fill-opacity="0.25"/>
<path d="M49.5666 26.4249C51.0059 26.4249 52.1727 25.2581 52.1727 23.8188C52.1727 22.3795 51.0059 21.2126 49.5666 21.2126C48.1273 21.2126 46.9604 22.3795 46.9604 23.8188C46.9604 25.2581 48.1273 26.4249 49.5666 26.4249Z" fill="#0D8BB2" fill-opacity="0.25"/>
<path d="M73.0462 26.4249C74.4855 26.4249 75.6523 25.2581 75.6523 23.8188C75.6523 22.3795 74.4855 21.2126 73.0462 21.2126C71.6068 21.2126 70.4399 22.3795 70.4399 23.8188C70.4399 25.2581 71.6068 26.4249 73.0462 26.4249Z" fill="#0D8BB2" fill-opacity="0.25"/>
<path d="M99.1322 23.8188C99.1322 25.2571 97.9644 26.4249 96.5261 26.4249C95.0878 26.4249 93.9199 25.2571 93.9199 23.8188C93.9199 22.3805 95.0878 21.2126 96.5261 21.2126C97.9644 21.2126 99.1322 22.3805 99.1322 23.8188Z" fill="#0D8BB2" fill-opacity="0.25"/>
<path d="M119.994 26.4249C121.434 26.4249 122.601 25.2581 122.601 23.8188C122.601 22.3795 121.434 21.2126 119.994 21.2126C118.555 21.2126 117.388 22.3795 117.388 23.8188C117.388 25.2581 118.555 26.4249 119.994 26.4249Z" fill="#0D8BB2" fill-opacity="0.25"/>
<path d="M143.474 26.4249C144.913 26.4249 146.08 25.2581 146.08 23.8188C146.08 22.3795 144.913 21.2126 143.474 21.2126C142.034 21.2126 140.868 22.3795 140.868 23.8188C140.868 25.2581 142.034 26.4249 143.474 26.4249Z" fill="#0D8BB2" fill-opacity="0.25"/>
<path d="M166.954 26.4249C168.393 26.4249 169.56 25.2581 169.56 23.8188C169.56 22.3795 168.393 21.2126 166.954 21.2126C165.514 21.2126 164.348 22.3795 164.348 23.8188C164.348 25.2581 165.514 26.4249 166.954 26.4249Z" fill="#0D8BB2" fill-opacity="0.25"/>
<path d="M190.434 26.4249C191.873 26.4249 193.04 25.2581 193.04 23.8188C193.04 22.3795 191.873 21.2126 190.434 21.2126C188.994 21.2126 187.828 22.3795 187.828 23.8188C187.828 25.2581 188.994 26.4249 190.434 26.4249Z" fill="#0D8BB2" fill-opacity="0.25"/>
<path d="M213.914 26.4249C215.353 26.4249 216.52 25.2581 216.52 23.8188C216.52 22.3795 215.353 21.2126 213.914 21.2126C212.474 21.2126 211.308 22.3795 211.308 23.8188C211.308 25.2581 212.474 26.4249 213.914 26.4249Z" fill="#0D8BB2" fill-opacity="0.25"/>
<path d="M237.394 26.4249C238.834 26.4249 240 25.2581 240 23.8188C240 22.3795 238.834 21.2126 237.394 21.2126C235.955 21.2126 234.788 22.3795 234.788 23.8188C234.788 25.2581 235.955 26.4249 237.394 26.4249Z" fill="#0D8BB2" fill-opacity="0.25"/>
<path d="M2.60615 47.6374C4.04549 47.6374 5.2123 46.4706 5.2123 45.0313C5.2123 43.5919 4.04549 42.425 2.60615 42.425C1.16681 42.425 0 43.5919 0 45.0313C0 46.4706 1.16681 47.6374 2.60615 47.6374Z" fill="#0D8BB2" fill-opacity="0.25"/>
<path d="M26.0861 47.6377C27.5255 47.6377 28.6923 46.4709 28.6923 45.0315C28.6923 43.5922 27.5255 42.4253 26.0861 42.4253C24.6468 42.4253 23.48 43.5922 23.48 45.0315C23.48 46.4709 24.6468 47.6377 26.0861 47.6377Z" fill="#0D8BB2" fill-opacity="0.25"/>
<path d="M49.5666 47.6377C51.0059 47.6377 52.1727 46.4709 52.1727 45.0315C52.1727 43.5922 51.0059 42.4253 49.5666 42.4253C48.1273 42.4253 46.9604 43.5922 46.9604 45.0315C46.9604 46.4709 48.1273 47.6377 49.5666 47.6377Z" fill="#0D8BB2" fill-opacity="0.25"/>
<path d="M73.0462 47.6377C74.4855 47.6377 75.6523 46.4709 75.6523 45.0315C75.6523 43.5922 74.4855 42.4253 73.0462 42.4253C71.6068 42.4253 70.4399 43.5922 70.4399 45.0315C70.4399 46.4709 71.6068 47.6377 73.0462 47.6377Z" fill="#0D8BB2" fill-opacity="0.25"/>
<path d="M99.1322 45.0315C99.1322 46.4698 97.9644 47.6377 96.5261 47.6377C95.0878 47.6377 93.9199 46.4698 93.9199 45.0315C93.9199 43.5932 95.0878 42.4253 96.5261 42.4253C97.9644 42.4253 99.1322 43.5932 99.1322 45.0315Z" fill="#0D8BB2" fill-opacity="0.25"/>
<path d="M119.994 47.6377C121.434 47.6377 122.601 46.4709 122.601 45.0315C122.601 43.5922 121.434 42.4253 119.994 42.4253C118.555 42.4253 117.388 43.5922 117.388 45.0315C117.388 46.4709 118.555 47.6377 119.994 47.6377Z" fill="#0D8BB2" fill-opacity="0.25"/>
<path d="M143.474 47.6377C144.913 47.6377 146.08 46.4709 146.08 45.0315C146.08 43.5922 144.913 42.4253 143.474 42.4253C142.034 42.4253 140.868 43.5922 140.868 45.0315C140.868 46.4709 142.034 47.6377 143.474 47.6377Z" fill="#0D8BB2" fill-opacity="0.25"/>
<path d="M166.954 47.6377C168.393 47.6377 169.56 46.4709 169.56 45.0315C169.56 43.5922 168.393 42.4253 166.954 42.4253C165.514 42.4253 164.348 43.5922 164.348 45.0315C164.348 46.4709 165.514 47.6377 166.954 47.6377Z" fill="#0D8BB2" fill-opacity="0.25"/>
<path d="M190.434 47.6377C191.873 47.6377 193.04 46.4709 193.04 45.0315C193.04 43.5922 191.873 42.4253 190.434 42.4253C188.994 42.4253 187.828 43.5922 187.828 45.0315C187.828 46.4709 188.994 47.6377 190.434 47.6377Z" fill="#0D8BB2" fill-opacity="0.25"/>
<path d="M213.914 47.6377C215.353 47.6377 216.52 46.4709 216.52 45.0315C216.52 43.5922 215.353 42.4253 213.914 42.4253C212.474 42.4253 211.308 43.5922 211.308 45.0315C211.308 46.4709 212.474 47.6377 213.914 47.6377Z" fill="#0D8BB2" fill-opacity="0.25"/>
<path d="M237.394 47.6377C238.834 47.6377 240 46.4709 240 45.0315C240 43.5922 238.834 42.4253 237.394 42.4253C235.955 42.4253 234.788 43.5922 234.788 45.0315C234.788 46.4709 235.955 47.6377 237.394 47.6377Z" fill="#0D8BB2" fill-opacity="0.25"/>
<path d="M5.2123 66.2438C5.2123 67.6821 4.04445 68.85 2.60615 68.85C1.16785 68.85 0 67.6821 0 66.2438C0 64.8055 1.16785 63.6377 2.60615 63.6377C4.04445 63.6377 5.2123 64.8055 5.2123 66.2438Z" fill="#0D8BB2" fill-opacity="0.25"/>
<path d="M28.6923 66.2443C28.6923 67.6826 27.5244 68.8505 26.0861 68.8505C24.6478 68.8505 23.48 67.6826 23.48 66.2443C23.48 64.806 24.6478 63.6382 26.0861 63.6382C27.5244 63.6382 28.6923 64.806 28.6923 66.2443Z" fill="#0D8BB2" fill-opacity="0.25"/>
<path d="M52.1727 66.2443C52.1727 67.6826 51.0049 68.8505 49.5666 68.8505C48.1283 68.8505 46.9604 67.6826 46.9604 66.2443C46.9604 64.806 48.1283 63.6382 49.5666 63.6382C51.0049 63.6382 52.1727 64.806 52.1727 66.2443Z" fill="#0D8BB2" fill-opacity="0.25"/>
<path d="M75.6523 66.2443C75.6523 67.6826 74.4845 68.8505 73.0462 68.8505C71.6079 68.8505 70.4399 67.6826 70.4399 66.2443C70.4399 64.806 71.6079 63.6382 73.0462 63.6382C74.4845 63.6382 75.6523 64.806 75.6523 66.2443Z" fill="#0D8BB2" fill-opacity="0.25"/>
<path d="M99.1322 66.2443C99.1322 67.6826 97.9644 68.8505 96.5261 68.8505C95.0878 68.8505 93.9199 67.6826 93.9199 66.2443C93.9199 64.806 95.0878 63.6382 96.5261 63.6382C97.9644 63.6382 99.1322 64.806 99.1322 66.2443Z" fill="#0D8BB2" fill-opacity="0.25"/>
<path d="M122.612 66.2443C122.612 67.6826 121.444 68.8505 120.006 68.8505C118.568 68.8505 117.4 67.6826 117.4 66.2443C117.4 64.806 118.568 63.6382 120.006 63.6382C121.432 63.6382 122.612 64.806 122.612 66.2443Z" fill="#0D8BB2" fill-opacity="0.25"/>
<path d="M146.08 66.2443C146.08 67.6826 144.912 68.8505 143.474 68.8505C142.036 68.8505 140.868 67.6826 140.868 66.2443C140.868 64.806 142.036 63.6382 143.474 63.6382C144.912 63.6382 146.08 64.806 146.08 66.2443Z" fill="#0D8BB2" fill-opacity="0.25"/>
<path d="M169.56 66.2443C169.56 67.6826 168.392 68.8505 166.954 68.8505C165.516 68.8505 164.348 67.6826 164.348 66.2443C164.348 64.806 165.516 63.6382 166.954 63.6382C168.392 63.6382 169.56 64.806 169.56 66.2443Z" fill="#0D8BB2" fill-opacity="0.25"/>
<path d="M193.04 66.2443C193.04 67.6826 191.872 68.8505 190.434 68.8505C188.995 68.8505 187.828 67.6826 187.828 66.2443C187.828 64.806 188.995 63.6382 190.434 63.6382C191.872 63.6382 193.04 64.806 193.04 66.2443Z" fill="#0D8BB2" fill-opacity="0.25"/>
<path d="M216.52 66.2443C216.52 67.6826 215.352 68.8505 213.914 68.8505C212.475 68.8505 211.308 67.6826 211.308 66.2443C211.308 64.806 212.475 63.6382 213.914 63.6382C215.352 63.6382 216.52 64.806 216.52 66.2443Z" fill="#0D8BB2" fill-opacity="0.25"/>
<path d="M240 66.2443C240 67.6826 238.833 68.8505 237.394 68.8505C235.956 68.8505 234.788 67.6826 234.788 66.2443C234.788 64.806 235.956 63.6382 237.394 63.6382C238.833 63.6382 240 64.806 240 66.2443Z" fill="#0D8BB2" fill-opacity="0.25"/>
<path d="M5.2123 87.4567C5.2123 88.895 4.04445 90.0629 2.60615 90.0629C1.16785 90.0629 0 88.895 0 87.4567C0 86.0184 1.16785 84.8506 2.60615 84.8506C4.04445 84.8383 5.2123 86.0061 5.2123 87.4567Z" fill="#0D8BB2" fill-opacity="0.25"/>
<path d="M28.6923 87.4566C28.6923 88.8949 27.5244 90.0627 26.0861 90.0627C24.6478 90.0627 23.48 88.8949 23.48 87.4566C23.48 86.0183 24.6478 84.8504 26.0861 84.8504C27.5244 84.8381 28.6923 86.006 28.6923 87.4566Z" fill="#0D8BB2" fill-opacity="0.25"/>
<path d="M52.1727 87.4566C52.1727 88.8949 51.0049 90.0627 49.5666 90.0627C48.1283 90.0627 46.9604 88.8949 46.9604 87.4566C46.9604 86.0183 48.1283 84.8504 49.5666 84.8504C51.0049 84.8381 52.1727 86.006 52.1727 87.4566Z" fill="#0D8BB2" fill-opacity="0.25"/>
<path d="M75.6523 87.4566C75.6523 88.8949 74.4845 90.0627 73.0462 90.0627C71.6079 90.0627 70.4399 88.8949 70.4399 87.4566C70.4399 86.0183 71.6079 84.8504 73.0462 84.8504C74.4845 84.8381 75.6523 86.006 75.6523 87.4566Z" fill="#0D8BB2" fill-opacity="0.25"/>
<path d="M99.1322 87.4566C99.1322 88.8949 97.9644 90.0627 96.5261 90.0627C95.0878 90.0627 93.9199 88.8949 93.9199 87.4566C93.9199 86.0183 95.0878 84.8504 96.5261 84.8504C97.9644 84.8381 99.1322 86.006 99.1322 87.4566Z" fill="#0D8BB2" fill-opacity="0.25"/>
<path d="M122.612 87.4566C122.612 88.8949 121.444 90.0627 120.006 90.0627C118.568 90.0627 117.4 88.8949 117.4 87.4566C117.4 86.0183 118.568 84.8504 120.006 84.8504C121.432 84.8381 122.612 86.006 122.612 87.4566Z" fill="#0D8BB2" fill-opacity="0.25"/>
<path d="M146.08 87.4566C146.08 88.8949 144.912 90.0627 143.474 90.0627C142.036 90.0627 140.868 88.8949 140.868 87.4566C140.868 86.0183 142.036 84.8504 143.474 84.8504C144.912 84.8381 146.08 86.006 146.08 87.4566Z" fill="#0D8BB2" fill-opacity="0.25"/>
<path d="M169.56 87.4565C169.56 88.8948 168.392 90.0626 166.954 90.0626C165.516 90.0626 164.348 88.8948 164.348 87.4565C164.348 86.0182 165.516 84.8503 166.954 84.8503C168.392 84.8503 169.56 86.0059 169.56 87.4565Z" fill="#0D8BB2" fill-opacity="0.25"/>
<path d="M193.04 87.4566C193.04 88.8949 191.872 90.0627 190.434 90.0627C188.995 90.0627 187.828 88.8949 187.828 87.4566C187.828 86.0183 188.995 84.8504 190.434 84.8504C191.872 84.8381 193.04 86.006 193.04 87.4566Z" fill="#0D8BB2" fill-opacity="0.25"/>
<path d="M216.52 87.4566C216.52 88.8949 215.352 90.0627 213.914 90.0627C212.475 90.0627 211.308 88.8949 211.308 87.4566C211.308 86.0183 212.475 84.8504 213.914 84.8504C215.352 84.8381 216.52 86.006 216.52 87.4566Z" fill="#0D8BB2" fill-opacity="0.25"/>
<path d="M240 87.4566C240 88.8949 238.833 90.0627 237.394 90.0627C235.956 90.0627 234.788 88.8949 234.788 87.4566C234.788 86.0183 235.956 84.8504 237.394 84.8504C238.833 84.8381 240 86.006 240 87.4566Z" fill="#0D8BB2" fill-opacity="0.25"/>
<path d="M2.60615 111.276C4.04549 111.276 5.2123 110.109 5.2123 108.669C5.2123 107.23 4.04549 106.063 2.60615 106.063C1.16681 106.063 0 107.23 0 108.669C0 110.109 1.16681 111.276 2.60615 111.276Z" fill="#0D8BB2" fill-opacity="0.25"/>
<path d="M26.0861 111.275C27.5255 111.275 28.6923 110.108 28.6923 108.669C28.6923 107.23 27.5255 106.063 26.0861 106.063C24.6468 106.063 23.48 107.23 23.48 108.669C23.48 110.108 24.6468 111.275 26.0861 111.275Z" fill="#0D8BB2" fill-opacity="0.25"/>
<path d="M49.5666 111.275C51.0059 111.275 52.1727 110.108 52.1727 108.669C52.1727 107.23 51.0059 106.063 49.5666 106.063C48.1273 106.063 46.9604 107.23 46.9604 108.669C46.9604 110.108 48.1273 111.275 49.5666 111.275Z" fill="#0D8BB2" fill-opacity="0.25"/>
<path d="M73.0462 111.275C74.4855 111.275 75.6523 110.108 75.6523 108.669C75.6523 107.23 74.4855 106.063 73.0462 106.063C71.6068 106.063 70.4399 107.23 70.4399 108.669C70.4399 110.108 71.6068 111.275 73.0462 111.275Z" fill="#0D8BB2" fill-opacity="0.25"/>
<path d="M99.1322 108.669C99.1322 110.107 97.9644 111.275 96.5261 111.275C95.0878 111.275 93.9199 110.107 93.9199 108.669C93.9199 107.231 95.0878 106.063 96.5261 106.063C97.9644 106.063 99.1322 107.231 99.1322 108.669Z" fill="#0D8BB2" fill-opacity="0.25"/>
<path d="M119.994 111.275C121.434 111.275 122.601 110.108 122.601 108.669C122.601 107.23 121.434 106.063 119.994 106.063C118.555 106.063 117.388 107.23 117.388 108.669C117.388 110.108 118.555 111.275 119.994 111.275Z" fill="#0D8BB2" fill-opacity="0.25"/>
<path d="M143.474 111.275C144.913 111.275 146.08 110.108 146.08 108.669C146.08 107.23 144.913 106.063 143.474 106.063C142.034 106.063 140.868 107.23 140.868 108.669C140.868 110.108 142.034 111.275 143.474 111.275Z" fill="#0D8BB2" fill-opacity="0.25"/>
<path d="M166.954 111.275C168.393 111.275 169.56 110.108 169.56 108.669C169.56 107.23 168.393 106.063 166.954 106.063C165.514 106.063 164.348 107.23 164.348 108.669C164.348 110.108 165.514 111.275 166.954 111.275Z" fill="#0D8BB2" fill-opacity="0.25"/>
<path d="M190.434 111.275C191.873 111.275 193.04 110.108 193.04 108.669C193.04 107.23 191.873 106.063 190.434 106.063C188.994 106.063 187.828 107.23 187.828 108.669C187.828 110.108 188.994 111.275 190.434 111.275Z" fill="#0D8BB2" fill-opacity="0.25"/>
<path d="M213.914 111.275C215.353 111.275 216.52 110.108 216.52 108.669C216.52 107.23 215.353 106.063 213.914 106.063C212.474 106.063 211.308 107.23 211.308 108.669C211.308 110.108 212.474 111.275 213.914 111.275Z" fill="#0D8BB2" fill-opacity="0.25"/>
<path d="M237.394 111.275C238.834 111.275 240 110.108 240 108.669C240 107.23 238.834 106.063 237.394 106.063C235.955 106.063 234.788 107.23 234.788 108.669C234.788 110.108 235.955 111.275 237.394 111.275Z" fill="#0D8BB2" fill-opacity="0.25"/>
<path d="M2.60615 132.488C4.04549 132.488 5.2123 131.321 5.2123 129.882C5.2123 128.442 4.04549 127.276 2.60615 127.276C1.16681 127.276 0 128.442 0 129.882C0 131.321 1.16681 132.488 2.60615 132.488Z" fill="#0D8BB2" fill-opacity="0.25"/>
<path d="M26.0861 132.488C27.5255 132.488 28.6923 131.321 28.6923 129.882C28.6923 128.442 27.5255 127.276 26.0861 127.276C24.6468 127.276 23.48 128.442 23.48 129.882C23.48 131.321 24.6468 132.488 26.0861 132.488Z" fill="#0D8BB2" fill-opacity="0.25"/>
<path d="M49.5666 132.488C51.0059 132.488 52.1727 131.321 52.1727 129.882C52.1727 128.442 51.0059 127.276 49.5666 127.276C48.1273 127.276 46.9604 128.442 46.9604 129.882C46.9604 131.321 48.1273 132.488 49.5666 132.488Z" fill="#0D8BB2" fill-opacity="0.25"/>
<path d="M73.0462 132.488C74.4855 132.488 75.6523 131.321 75.6523 129.882C75.6523 128.442 74.4855 127.276 73.0462 127.276C71.6068 127.276 70.4399 128.442 70.4399 129.882C70.4399 131.321 71.6068 132.488 73.0462 132.488Z" fill="#0D8BB2" fill-opacity="0.25"/>
<path d="M99.1322 129.882C99.1322 131.32 97.9644 132.488 96.5261 132.488C95.0878 132.488 93.9199 131.32 93.9199 129.882C93.9199 128.443 95.0878 127.276 96.5261 127.276C97.9644 127.276 99.1322 128.443 99.1322 129.882Z" fill="#0D8BB2" fill-opacity="0.25"/>
<path d="M119.994 132.488C121.434 132.488 122.601 131.321 122.601 129.882C122.601 128.442 121.434 127.276 119.994 127.276C118.555 127.276 117.388 128.442 117.388 129.882C117.388 131.321 118.555 132.488 119.994 132.488Z" fill="#0D8BB2" fill-opacity="0.25"/>
<path d="M143.474 132.488C144.913 132.488 146.08 131.321 146.08 129.882C146.08 128.442 144.913 127.276 143.474 127.276C142.034 127.276 140.868 128.442 140.868 129.882C140.868 131.321 142.034 132.488 143.474 132.488Z" fill="#0D8BB2" fill-opacity="0.25"/>
<path d="M166.954 132.488C168.393 132.488 169.56 131.321 169.56 129.882C169.56 128.442 168.393 127.276 166.954 127.276C165.514 127.276 164.348 128.442 164.348 129.882C164.348 131.321 165.514 132.488 166.954 132.488Z" fill="#0D8BB2" fill-opacity="0.25"/>
<path d="M190.434 132.488C191.873 132.488 193.04 131.321 193.04 129.882C193.04 128.442 191.873 127.276 190.434 127.276C188.994 127.276 187.828 128.442 187.828 129.882C187.828 131.321 188.994 132.488 190.434 132.488Z" fill="#0D8BB2" fill-opacity="0.25"/>
<path d="M213.914 132.488C215.353 132.488 216.52 131.321 216.52 129.882C216.52 128.442 215.353 127.276 213.914 127.276C212.474 127.276 211.308 128.442 211.308 129.882C211.308 131.321 212.474 132.488 213.914 132.488Z" fill="#0D8BB2" fill-opacity="0.25"/>
<path d="M237.394 132.488C238.834 132.488 240 131.321 240 129.882C240 128.442 238.834 127.276 237.394 127.276C235.955 127.276 234.788 128.442 234.788 129.882C234.788 131.321 235.955 132.488 237.394 132.488Z" fill="#0D8BB2" fill-opacity="0.25"/>
<path d="M5.2123 151.094C5.2123 152.532 4.04445 153.7 2.60615 153.7C1.16785 153.7 0 152.532 0 151.094C0 149.656 1.16785 148.488 2.60615 148.488C4.04445 148.476 5.2123 149.644 5.2123 151.094Z" fill="#0D8BB2" fill-opacity="0.25"/>
<path d="M28.6923 151.094C28.6923 152.533 27.5244 153.701 26.0861 153.701C24.6478 153.701 23.48 152.533 23.48 151.094C23.48 149.656 24.6478 148.488 26.0861 148.488C27.5244 148.476 28.6923 149.644 28.6923 151.094Z" fill="#0D8BB2" fill-opacity="0.25"/>
<path d="M52.1727 151.094C52.1727 152.533 51.0049 153.701 49.5666 153.701C48.1283 153.701 46.9604 152.533 46.9604 151.094C46.9604 149.656 48.1283 148.488 49.5666 148.488C51.0049 148.476 52.1727 149.644 52.1727 151.094Z" fill="#0D8BB2" fill-opacity="0.25"/>
<path d="M75.6523 151.094C75.6523 152.533 74.4845 153.701 73.0462 153.701C71.6079 153.701 70.4399 152.533 70.4399 151.094C70.4399 149.656 71.6079 148.488 73.0462 148.488C74.4845 148.476 75.6523 149.644 75.6523 151.094Z" fill="#0D8BB2" fill-opacity="0.25"/>
<path d="M99.1322 151.094C99.1322 152.533 97.9644 153.701 96.5261 153.701C95.0878 153.701 93.9199 152.533 93.9199 151.094C93.9199 149.656 95.0878 148.488 96.5261 148.488C97.9644 148.476 99.1322 149.644 99.1322 151.094Z" fill="#0D8BB2" fill-opacity="0.25"/>
<path d="M122.612 151.094C122.612 152.533 121.444 153.701 120.006 153.701C118.568 153.701 117.4 152.533 117.4 151.094C117.4 149.656 118.568 148.488 120.006 148.488C121.432 148.476 122.612 149.644 122.612 151.094Z" fill="#0D8BB2" fill-opacity="0.25"/>
<path d="M146.08 151.094C146.08 152.533 144.912 153.701 143.474 153.701C142.036 153.701 140.868 152.533 140.868 151.094C140.868 149.656 142.036 148.488 143.474 148.488C144.912 148.476 146.08 149.644 146.08 151.094Z" fill="#0D8BB2" fill-opacity="0.25"/>
<path d="M169.56 151.094C169.56 152.533 168.392 153.7 166.954 153.7C165.516 153.7 164.348 152.533 164.348 151.094C164.348 149.656 165.516 148.488 166.954 148.488C168.392 148.488 169.56 149.644 169.56 151.094Z" fill="#0D8BB2" fill-opacity="0.25"/>
<path d="M193.04 151.094C193.04 152.533 191.872 153.701 190.434 153.701C188.995 153.701 187.828 152.533 187.828 151.094C187.828 149.656 188.995 148.488 190.434 148.488C191.872 148.476 193.04 149.644 193.04 151.094Z" fill="#0D8BB2" fill-opacity="0.25"/>
<path d="M216.52 151.094C216.52 152.533 215.352 153.701 213.914 153.701C212.475 153.701 211.308 152.533 211.308 151.094C211.308 149.656 212.475 148.488 213.914 148.488C215.352 148.476 216.52 149.644 216.52 151.094Z" fill="#0D8BB2" fill-opacity="0.25"/>
<path d="M240 151.094C240 152.533 238.833 153.701 237.394 153.701C235.956 153.701 234.788 152.533 234.788 151.094C234.788 149.656 235.956 148.488 237.394 148.488C238.833 148.476 240 149.644 240 151.094Z" fill="#0D8BB2" fill-opacity="0.25"/>
<path d="M5.2123 172.307C5.2123 173.745 4.04445 174.913 2.60615 174.913C1.16785 174.913 0 173.745 0 172.307C0 170.869 1.16785 169.701 2.60615 169.701C4.04445 169.701 5.2123 170.869 5.2123 172.307Z" fill="#0D8BB2" fill-opacity="0.25"/>
<path d="M28.6923 172.307C28.6923 173.745 27.5244 174.913 26.0861 174.913C24.6478 174.913 23.48 173.745 23.48 172.307C23.48 170.869 24.6478 169.701 26.0861 169.701C27.5244 169.701 28.6923 170.869 28.6923 172.307Z" fill="#0D8BB2" fill-opacity="0.25"/>
<path d="M52.1727 172.307C52.1727 173.745 51.0049 174.913 49.5666 174.913C48.1283 174.913 46.9604 173.745 46.9604 172.307C46.9604 170.869 48.1283 169.701 49.5666 169.701C51.0049 169.701 52.1727 170.869 52.1727 172.307Z" fill="#0D8BB2" fill-opacity="0.25"/>
<path d="M75.6523 172.307C75.6523 173.745 74.4845 174.913 73.0462 174.913C71.6079 174.913 70.4399 173.745 70.4399 172.307C70.4399 170.869 71.6079 169.701 73.0462 169.701C74.4845 169.701 75.6523 170.869 75.6523 172.307Z" fill="#0D8BB2" fill-opacity="0.25"/>
<path d="M99.1322 172.307C99.1322 173.745 97.9644 174.913 96.5261 174.913C95.0878 174.913 93.9199 173.745 93.9199 172.307C93.9199 170.869 95.0878 169.701 96.5261 169.701C97.9644 169.701 99.1322 170.869 99.1322 172.307Z" fill="#0D8BB2" fill-opacity="0.25"/>
<path d="M122.612 172.307C122.612 173.745 121.444 174.913 120.006 174.913C118.568 174.913 117.4 173.745 117.4 172.307C117.4 170.869 118.568 169.701 120.006 169.701C121.432 169.701 122.612 170.869 122.612 172.307Z" fill="#0D8BB2" fill-opacity="0.25"/>
<path d="M146.08 172.307C146.08 173.745 144.912 174.913 143.474 174.913C142.036 174.913 140.868 173.745 140.868 172.307C140.868 170.869 142.036 169.701 143.474 169.701C144.912 169.701 146.08 170.869 146.08 172.307Z" fill="#0D8BB2" fill-opacity="0.25"/>
<path d="M169.56 172.307C169.56 173.745 168.392 174.913 166.954 174.913C165.516 174.913 164.348 173.745 164.348 172.307C164.348 170.869 165.516 169.701 166.954 169.701C168.392 169.701 169.56 170.869 169.56 172.307Z" fill="#0D8BB2" fill-opacity="0.25"/>
<path d="M193.04 172.307C193.04 173.745 191.872 174.913 190.434 174.913C188.995 174.913 187.828 173.745 187.828 172.307C187.828 170.869 188.995 169.701 190.434 169.701C191.872 169.701 193.04 170.869 193.04 172.307Z" fill="#0D8BB2" fill-opacity="0.25"/>
<path d="M216.52 172.307C216.52 173.745 215.352 174.913 213.914 174.913C212.475 174.913 211.308 173.745 211.308 172.307C211.308 170.869 212.475 169.701 213.914 169.701C215.352 169.701 216.52 170.869 216.52 172.307Z" fill="#0D8BB2" fill-opacity="0.25"/>
<path d="M240 172.307C240 173.745 238.833 174.913 237.394 174.913C235.956 174.913 234.788 173.745 234.788 172.307C234.788 170.869 235.956 169.701 237.394 169.701C238.833 169.701 240 170.869 240 172.307Z" fill="#0D8BB2" fill-opacity="0.25"/>
<path d="M2.60615 196.126C4.04549 196.126 5.2123 194.959 5.2123 193.52C5.2123 192.08 4.04549 190.913 2.60615 190.913C1.16681 190.913 0 192.08 0 193.52C0 194.959 1.16681 196.126 2.60615 196.126Z" fill="#0D8BB2" fill-opacity="0.25"/>
<path d="M26.0861 196.125C27.5255 196.125 28.6923 194.959 28.6923 193.519C28.6923 192.08 27.5255 190.913 26.0861 190.913C24.6468 190.913 23.48 192.08 23.48 193.519C23.48 194.959 24.6468 196.125 26.0861 196.125Z" fill="#0D8BB2" fill-opacity="0.25"/>
<path d="M49.5666 196.125C51.0059 196.125 52.1727 194.959 52.1727 193.519C52.1727 192.08 51.0059 190.913 49.5666 190.913C48.1273 190.913 46.9604 192.08 46.9604 193.519C46.9604 194.959 48.1273 196.125 49.5666 196.125Z" fill="#0D8BB2" fill-opacity="0.25"/>
<path d="M73.0462 196.125C74.4855 196.125 75.6523 194.959 75.6523 193.519C75.6523 192.08 74.4855 190.913 73.0462 190.913C71.6068 190.913 70.4399 192.08 70.4399 193.519C70.4399 194.959 71.6068 196.125 73.0462 196.125Z" fill="#0D8BB2" fill-opacity="0.25"/>
<path d="M99.1322 193.519C99.1322 194.958 97.9644 196.125 96.5261 196.125C95.0878 196.125 93.9199 194.958 93.9199 193.519C93.9199 192.081 95.0878 190.913 96.5261 190.913C97.9644 190.913 99.1322 192.081 99.1322 193.519Z" fill="#0D8BB2" fill-opacity="0.25"/>
<path d="M119.994 196.125C121.434 196.125 122.601 194.959 122.601 193.519C122.601 192.08 121.434 190.913 119.994 190.913C118.555 190.913 117.388 192.08 117.388 193.519C117.388 194.959 118.555 196.125 119.994 196.125Z" fill="#0D8BB2" fill-opacity="0.25"/>
<path d="M143.474 196.125C144.913 196.125 146.08 194.959 146.08 193.519C146.08 192.08 144.913 190.913 143.474 190.913C142.034 190.913 140.868 192.08 140.868 193.519C140.868 194.959 142.034 196.125 143.474 196.125Z" fill="#0D8BB2" fill-opacity="0.25"/>
<path d="M166.954 196.125C168.393 196.125 169.56 194.959 169.56 193.519C169.56 192.08 168.393 190.913 166.954 190.913C165.514 190.913 164.348 192.08 164.348 193.519C164.348 194.959 165.514 196.125 166.954 196.125Z" fill="#0D8BB2" fill-opacity="0.25"/>
<path d="M190.434 196.125C191.873 196.125 193.04 194.959 193.04 193.519C193.04 192.08 191.873 190.913 190.434 190.913C188.994 190.913 187.828 192.08 187.828 193.519C187.828 194.959 188.994 196.125 190.434 196.125Z" fill="#0D8BB2" fill-opacity="0.25"/>
<path d="M213.914 196.125C215.353 196.125 216.52 194.959 216.52 193.519C216.52 192.08 215.353 190.913 213.914 190.913C212.474 190.913 211.308 192.08 211.308 193.519C211.308 194.959 212.474 196.125 213.914 196.125Z" fill="#0D8BB2" fill-opacity="0.25"/>
<path d="M237.394 196.125C238.834 196.125 240 194.959 240 193.519C240 192.08 238.834 190.913 237.394 190.913C235.955 190.913 234.788 192.08 234.788 193.519C234.788 194.959 235.955 196.125 237.394 196.125Z" fill="#0D8BB2" fill-opacity="0.25"/>
<path d="M2.60615 217.339C4.04549 217.339 5.2123 216.172 5.2123 214.732C5.2123 213.293 4.04549 212.126 2.60615 212.126C1.16681 212.126 0 213.293 0 214.732C0 216.172 1.16681 217.339 2.60615 217.339Z" fill="#0D8BB2" fill-opacity="0.25"/>
<path d="M26.0861 217.338C27.5255 217.338 28.6923 216.171 28.6923 214.732C28.6923 213.293 27.5255 212.126 26.0861 212.126C24.6468 212.126 23.48 213.293 23.48 214.732C23.48 216.171 24.6468 217.338 26.0861 217.338Z" fill="#0D8BB2" fill-opacity="0.25"/>
<path d="M49.5666 217.338C51.0059 217.338 52.1727 216.171 52.1727 214.732C52.1727 213.293 51.0059 212.126 49.5666 212.126C48.1273 212.126 46.9604 213.293 46.9604 214.732C46.9604 216.171 48.1273 217.338 49.5666 217.338Z" fill="#0D8BB2" fill-opacity="0.25"/>
<path d="M73.0462 217.338C74.4855 217.338 75.6523 216.171 75.6523 214.732C75.6523 213.293 74.4855 212.126 73.0462 212.126C71.6068 212.126 70.4399 213.293 70.4399 214.732C70.4399 216.171 71.6068 217.338 73.0462 217.338Z" fill="#0D8BB2" fill-opacity="0.25"/>
<path d="M99.1322 214.732C99.1322 216.17 97.9644 217.338 96.5261 217.338C95.0878 217.338 93.9199 216.17 93.9199 214.732C93.9199 213.294 95.0878 212.126 96.5261 212.126C97.9644 212.114 99.1322 213.282 99.1322 214.732Z" fill="#0D8BB2" fill-opacity="0.25"/>
<path d="M119.994 217.338C121.434 217.338 122.601 216.171 122.601 214.732C122.601 213.293 121.434 212.126 119.994 212.126C118.555 212.126 117.388 213.293 117.388 214.732C117.388 216.171 118.555 217.338 119.994 217.338Z" fill="#0D8BB2" fill-opacity="0.25"/>
<path d="M143.474 217.338C144.913 217.338 146.08 216.171 146.08 214.732C146.08 213.293 144.913 212.126 143.474 212.126C142.034 212.126 140.868 213.293 140.868 214.732C140.868 216.171 142.034 217.338 143.474 217.338Z" fill="#0D8BB2" fill-opacity="0.25"/>
<path d="M166.954 217.338C168.393 217.338 169.56 216.171 169.56 214.732C169.56 213.293 168.393 212.126 166.954 212.126C165.514 212.126 164.348 213.293 164.348 214.732C164.348 216.171 165.514 217.338 166.954 217.338Z" fill="#0D8BB2" fill-opacity="0.25"/>
<path d="M190.434 217.338C191.873 217.338 193.04 216.171 193.04 214.732C193.04 213.293 191.873 212.126 190.434 212.126C188.994 212.126 187.828 213.293 187.828 214.732C187.828 216.171 188.994 217.338 190.434 217.338Z" fill="#0D8BB2" fill-opacity="0.25"/>
<path d="M213.914 217.338C215.353 217.338 216.52 216.171 216.52 214.732C216.52 213.293 215.353 212.126 213.914 212.126C212.474 212.126 211.308 213.293 211.308 214.732C211.308 216.171 212.474 217.338 213.914 217.338Z" fill="#0D8BB2" fill-opacity="0.25"/>
<path d="M237.394 217.338C238.834 217.338 240 216.171 240 214.732C240 213.293 238.834 212.126 237.394 212.126C235.955 212.126 234.788 213.293 234.788 214.732C234.788 216.171 235.955 217.338 237.394 217.338Z" fill="#0D8BB2" fill-opacity="0.25"/>
<path d="M5.2123 235.945C5.2123 237.383 4.04445 238.551 2.60615 238.551C1.16785 238.551 0 237.383 0 235.945C0 234.506 1.16785 233.339 2.60615 233.339C4.04445 233.339 5.2123 234.506 5.2123 235.945Z" fill="#0D8BB2" fill-opacity="0.25"/>
<path d="M28.6923 235.945C28.6923 237.383 27.5244 238.551 26.0861 238.551C24.6478 238.551 23.48 237.383 23.48 235.945C23.48 234.506 24.6478 233.338 26.0861 233.338C27.5244 233.338 28.6923 234.506 28.6923 235.945Z" fill="#0D8BB2" fill-opacity="0.25"/>
<path d="M52.1727 235.945C52.1727 237.383 51.0049 238.551 49.5666 238.551C48.1283 238.551 46.9604 237.383 46.9604 235.945C46.9604 234.506 48.1283 233.338 49.5666 233.338C51.0049 233.338 52.1727 234.506 52.1727 235.945Z" fill="#0D8BB2" fill-opacity="0.25"/>
<path d="M75.6523 235.945C75.6523 237.383 74.4845 238.551 73.0462 238.551C71.6079 238.551 70.4399 237.383 70.4399 235.945C70.4399 234.506 71.6079 233.338 73.0462 233.338C74.4845 233.338 75.6523 234.506 75.6523 235.945Z" fill="#0D8BB2" fill-opacity="0.25"/>
<path d="M99.1322 235.945C99.1322 237.383 97.9644 238.551 96.5261 238.551C95.0878 238.551 93.9199 237.383 93.9199 235.945C93.9199 234.506 95.0878 233.338 96.5261 233.338C97.9644 233.338 99.1322 234.506 99.1322 235.945Z" fill="#0D8BB2" fill-opacity="0.25"/>
<path d="M122.612 235.945C122.612 237.383 121.444 238.551 120.006 238.551C118.568 238.551 117.4 237.383 117.4 235.945C117.4 234.506 118.568 233.338 120.006 233.338C121.432 233.338 122.612 234.506 122.612 235.945Z" fill="#0D8BB2" fill-opacity="0.25"/>
<path d="M146.08 235.945C146.08 237.383 144.912 238.551 143.474 238.551C142.036 238.551 140.868 237.383 140.868 235.945C140.868 234.506 142.036 233.338 143.474 233.338C144.912 233.338 146.08 234.506 146.08 235.945Z" fill="#0D8BB2" fill-opacity="0.25"/>
<path d="M169.56 235.945C169.56 237.383 168.392 238.551 166.954 238.551C165.516 238.551 164.348 237.383 164.348 235.945C164.348 234.506 165.516 233.338 166.954 233.338C168.392 233.338 169.56 234.506 169.56 235.945Z" fill="#0D8BB2" fill-opacity="0.25"/>
<path d="M193.04 235.945C193.04 237.383 191.872 238.551 190.434 238.551C188.995 238.551 187.828 237.383 187.828 235.945C187.828 234.506 188.995 233.338 190.434 233.338C191.872 233.338 193.04 234.506 193.04 235.945Z" fill="#0D8BB2" fill-opacity="0.25"/>
<path d="M216.52 235.945C216.52 237.383 215.352 238.551 213.914 238.551C212.475 238.551 211.308 237.383 211.308 235.945C211.308 234.506 212.475 233.338 213.914 233.338C215.352 233.338 216.52 234.506 216.52 235.945Z" fill="#0D8BB2" fill-opacity="0.25"/>
<path d="M240 235.945C240 237.383 238.833 238.551 237.394 238.551C235.956 238.551 234.788 237.383 234.788 235.945C234.788 234.506 235.956 233.338 237.394 233.338C238.833 233.338 240 234.506 240 235.945Z" fill="#0D8BB2" fill-opacity="0.25"/>
</svg>
