<?xml version="1.0" encoding="UTF-8"?>
<svg width="52px" height="52px" viewBox="0 0 52 52" version="1.1" xmlns="http://www.w3.org/2000/svg" xmlns:xlink="http://www.w3.org/1999/xlink">
    <!-- Generator: Sketch 54.1 (76490) - https://sketchapp.com -->
    <title>Group 6</title>
    <desc>Created with Sketch.</desc>
    <g id="Page-1" stroke="none" stroke-width="1" fill="none" fill-rule="evenodd">
        <g id="ISUU-Icon" transform="translate(-369.000000, -1931.000000)">
            <g id="Group-6" transform="translate(370.000000, 1932.000000)">
                <circle id="Oval-3-Copy-3" stroke="#2F94CB" cx="25" cy="25" r="25"/>
                <g id="Group-9" transform="translate(17.000000, 17.000000)" fill="#2F94CB">
                    <path d="M7.9796284,10.1537499 C6.79024784,10.1424327 5.83512206,9.1691577 5.84625011,7.97972506 C5.85756676,6.79029243 6.83079919,5.83493621 8.02036836,5.84625336 C9.20956031,5.85757052 10.1650633,6.83084555 10.1537467,8.02027819 C10.14243,9.20971083 9.16900896,10.1648784 7.9796284,10.1537499 Z M8.03760348,4.00018024 C5.82884393,3.97942776 4.02093532,5.75332179 4.0001833,7.96230853 C3.97925391,10.1711179 5.75328531,11.9788899 7.96222222,11.9998198 C10.1709818,12.0205723 11.9790677,10.2465009 11.9998198,8.03786886 C12.0205718,5.82888212 10.2467178,4.0211101 8.03760348,4.00018024 L8.03760348,4.00018024 Z" id="Fill-1"/>
                    <path d="M2.37062496,7.94707348 C2.40006691,4.8380481 4.94435732,2.34136272 8.05310232,2.37062499 C11.1620279,2.40006789 13.6588139,4.94443992 13.6293719,8.05328466 C13.5999299,11.1619488 11.0556395,13.6588148 7.94689454,13.6293719 C4.83814954,13.599929 2.34136364,11.055557 2.37062496,7.94707348 Z M8.00008911,0.000356422851 C7.98725732,0.000356422851 7.97478196,0.000712845702 7.96195017,0.000712845702 L7.96195017,0 L0.664936454,0 C0.299230315,0 0,0.299216984 0,0.664906829 L0,8.00026732 C0,12.4183068 3.58167459,16 8.00008911,16 C12.4185036,16 16,12.4183068 16,8.00026732 C16,3.58187144 12.4185036,0.000356422851 8.00008911,0.000356422851 L8.00008911,0.000356422851 Z" id="Fill-2"/>
                </g>
            </g>
        </g>
    </g>
</svg>