<?xml version="1.0" encoding="UTF-8"?>
<svg width="26px" height="28px" viewBox="0 0 26 28" version="1.1" xmlns="http://www.w3.org/2000/svg" xmlns:xlink="http://www.w3.org/1999/xlink">
    <!-- Generator: Sketch 53.2 (72643) - https://sketchapp.com -->
    <title>calendar</title>
    <desc>Created with Sketch.</desc>
    <g id="Page-1" stroke="none" stroke-width="1" fill="none" fill-rule="evenodd">
        <g id="01-Vitalhotel-Startseite" transform="translate(-1738.000000, -472.000000)" fill="#FFFFFF" fill-rule="nonzero">
            <g id="Group-76" transform="translate(1723.000000, 382.000000)">
                <g id="calendar" transform="translate(15.000000, 90.000000)">
                    <path d="M25.5357143,1.86666667 L22.2857143,1.86666667 L22.2857143,0.466666667 C22.2857143,0.2086 22.0781786,0 21.8214286,0 L18.5714286,0 C18.3146786,0 18.1071429,0.2086 18.1071429,0.466666667 L18.1071429,1.86666667 L7.89285714,1.86666667 L7.89285714,0.466666667 C7.89285714,0.2086 7.68532143,0 7.42857143,0 L4.17857143,0 C3.92182143,0 3.71428571,0.2086 3.71428571,0.466666667 L3.71428571,1.86666667 L0.464285714,1.86666667 C0.207535714,1.86666667 0,2.07526667 0,2.33333333 L0,7.46666667 L0,27.5333333 C0,27.7914 0.207535714,28 0.464285714,28 L25.5357143,28 C25.7924643,28 26,27.7914 26,27.5333333 L26,7.46666667 L26,2.33333333 C26,2.07526667 25.7924643,1.86666667 25.5357143,1.86666667 Z M19.0357143,0.933333333 L21.3571429,0.933333333 L21.3571429,2.33333333 L21.3571429,3.73333333 L19.0357143,3.73333333 L19.0357143,2.33333333 L19.0357143,0.933333333 Z M4.64285714,0.933333333 L6.96428571,0.933333333 L6.96428571,2.33333333 L6.96428571,3.73333333 L4.64285714,3.73333333 L4.64285714,2.33333333 L4.64285714,0.933333333 Z M0.928571429,2.8 L3.71428571,2.8 L3.71428571,4.2 C3.71428571,4.45806667 3.92182143,4.66666667 4.17857143,4.66666667 L7.42857143,4.66666667 C7.68532143,4.66666667 7.89285714,4.45806667 7.89285714,4.2 L7.89285714,2.8 L18.1071429,2.8 L18.1071429,4.2 C18.1071429,4.45806667 18.3146786,4.66666667 18.5714286,4.66666667 L21.8214286,4.66666667 C22.0781786,4.66666667 22.2857143,4.45806667 22.2857143,4.2 L22.2857143,2.8 L25.0714286,2.8 L25.0714286,7 L0.928571429,7 L0.928571429,2.8 Z M0.928571429,27.0666667 L0.928571429,7.93333333 L25.0714286,7.93333333 L25.0714286,27.0666667 L0.928571429,27.0666667 Z" id="Shape"></path>
                    <path d="M16.7894737,11 L13.4736842,11 L12.5263158,11 L9.21052632,11 L8.26315789,11 L4,11 L4,15.3448276 L4,16.3103448 L4,19.6896552 L4,20.6551724 L4,25 L8.26315789,25 L9.21052632,25 L12.5263158,25 L13.4736842,25 L16.7894737,25 L17.7368421,25 L22,25 L22,20.6551724 L22,19.6896552 L22,16.3103448 L22,15.3448276 L22,11 L17.7368421,11 L16.7894737,11 Z M13.4736842,11.9655172 L16.7894737,11.9655172 L16.7894737,15.3448276 L13.4736842,15.3448276 L13.4736842,11.9655172 Z M16.7894737,19.6896552 L13.4736842,19.6896552 L13.4736842,16.3103448 L16.7894737,16.3103448 L16.7894737,19.6896552 Z M9.21052632,16.3103448 L12.5263158,16.3103448 L12.5263158,19.6896552 L9.21052632,19.6896552 L9.21052632,16.3103448 Z M9.21052632,11.9655172 L12.5263158,11.9655172 L12.5263158,15.3448276 L9.21052632,15.3448276 L9.21052632,11.9655172 Z M4.94736842,11.9655172 L8.26315789,11.9655172 L8.26315789,15.3448276 L4.94736842,15.3448276 L4.94736842,11.9655172 Z M4.94736842,16.3103448 L8.26315789,16.3103448 L8.26315789,19.6896552 L4.94736842,19.6896552 L4.94736842,16.3103448 Z M8.26315789,24.0344828 L4.94736842,24.0344828 L4.94736842,20.6551724 L8.26315789,20.6551724 L8.26315789,24.0344828 Z M12.5263158,24.0344828 L9.21052632,24.0344828 L9.21052632,20.6551724 L12.5263158,20.6551724 L12.5263158,24.0344828 Z M16.7894737,24.0344828 L13.4736842,24.0344828 L13.4736842,20.6551724 L16.7894737,20.6551724 L16.7894737,24.0344828 Z M21.0526316,24.0344828 L17.7368421,24.0344828 L17.7368421,20.6551724 L21.0526316,20.6551724 L21.0526316,24.0344828 Z M21.0526316,19.6896552 L17.7368421,19.6896552 L17.7368421,16.3103448 L21.0526316,16.3103448 L21.0526316,19.6896552 Z M21.0526316,11.9655172 L21.0526316,15.3448276 L17.7368421,15.3448276 L17.7368421,11.9655172 L21.0526316,11.9655172 Z" id="Shape"></path>
                </g>
            </g>
        </g>
    </g>
</svg>