<?xml version="1.0" encoding="UTF-8"?>
<svg width="31px" height="30px" viewBox="0 0 31 30" version="1.1" xmlns="http://www.w3.org/2000/svg" xmlns:xlink="http://www.w3.org/1999/xlink">
    <!-- Generator: Sketch 53.2 (72643) - https://sketchapp.com -->
    <title>star(1)</title>
    <desc>Created with Sketch.</desc>
    <g id="Page-1" stroke="none" stroke-width="1" fill="none" fill-rule="evenodd">
        <g id="01-Vitalhotel-Startseite" transform="translate(-1736.000000, -395.000000)" fill="#FFFFFF" fill-rule="nonzero">
            <g id="Group-76" transform="translate(1723.000000, 382.000000)">
                <g id="star(1)" transform="translate(13.000000, 13.000000)">
                    <path d="M30.9574657,11.3370593 C30.8556641,11.0210662 30.5884351,10.7953568 30.2639426,10.7437661 L20.5927953,9.35081685 L16.240779,0.483662941 C16.0944393,0.187016337 15.7953972,0 15.4709048,0 L15.4709048,0 C15.1464123,0 14.8473703,0.187016337 14.7010306,0.49011178 L10.4062776,9.38306105 L0.73513032,10.8404987 C0.410637877,10.8920894 0.143408806,11.1177988 0.0416072556,11.4337919 C-0.060194295,11.749785 0.0288820618,12.0980224 0.264298148,12.3237317 L7.28224255,19.2175408 L5.65978033,28.9810834 C5.60251696,29.3099742 5.7361315,29.638865 6.00336057,29.8323302 C6.1497003,29.9419604 6.32785301,30 6.50600572,30 C6.64598286,30 6.77959739,29.9677558 6.90684933,29.8968186 L15.5408933,25.2601032 L24.2003878,29.8452279 C24.3276397,29.9097163 24.4612542,29.9419604 24.5948688,29.9419604 L24.5948688,29.9419604 C25.0657009,29.9419604 25.4538193,29.5485813 25.4538193,29.0713672 C25.4538193,29.0004299 25.4474567,28.9359415 25.428369,28.8714531 L23.755006,19.1659501 L30.7284122,12.233448 C30.9765535,12.0012898 31.0592672,11.6530525 30.9574657,11.3370593 Z M22.2407079,18.2437661 C22.0371048,18.4436801 21.9480284,18.7338779 21.9989292,19.0176268 L23.4559639,27.4849527 L15.9353744,23.5060189 C15.6872331,23.3705933 15.388191,23.3770421 15.1336871,23.5060189 L7.63854798,27.5300946 L9.04468189,19.049871 C9.08922007,18.7661221 9.00014372,18.4823732 8.79654061,18.2824592 L2.71389796,12.2979364 L11.1061633,11.0339639 C11.3861176,10.988822 11.6278962,10.8147034 11.7487856,10.5567498 L15.4772674,2.83748925 L19.2566499,10.5374033 C19.3839019,10.7953568 19.6256806,10.9694755 19.9056348,11.0146174 L28.3042628,12.2269991 L22.2407079,18.2437661 Z" id="Shape"></path>
                </g>
            </g>
        </g>
    </g>
</svg>