<?xml version="1.0" encoding="UTF-8"?>
<svg width="25px" height="27px" viewBox="0 0 25 27" version="1.1" xmlns="http://www.w3.org/2000/svg" xmlns:xlink="http://www.w3.org/1999/xlink">
    <!-- Generator: Sketch 53.2 (72643) - https://sketchapp.com -->
    <title>Group 3</title>
    <desc>Created with Sketch.</desc>
    <defs>
        <polygon id="path-1" points="0 0 25 0 25 27 0 27"></polygon>
    </defs>
    <g id="Page-1" stroke="none" stroke-width="1" fill="none" fill-rule="evenodd">
        <g id="01-Vitalhotel-Startseite" transform="translate(-1737.000000, -549.000000)">
            <g id="Group-76" transform="translate(1723.000000, 382.000000)">
                <g id="Group-3" transform="translate(14.000000, 167.000000)">
                    <mask id="mask-2" fill="white">
                        <use xlink:href="#path-1"></use>
                    </mask>
                    <g id="Clip-2"></g>
                    <path d="M21.9480421,16.2792129 L7.12503628,16.2792129 C6.26252644,16.2792129 5.56588387,15.574482 5.56588387,14.7143775 L5.56588387,11.0242515 L5.56588387,6.89574957 L5.56588387,6.61829649 L23.5071945,9.09872706 L23.5071945,14.7088284 C23.5071945,15.5799756 22.805023,16.2792129 21.9480421,16.2792129 M22.7497339,23.9702123 C22.7497339,24.8136697 22.0641492,25.4962043 21.2292839,25.4962043 C20.3944186,25.4962043 19.7088338,24.8081206 19.7088338,23.9702123 C19.7088338,23.132304 20.3944186,22.4442204 21.2292839,22.4442204 C22.0641492,22.4442204 22.7497339,23.1266995 22.7497339,23.9702123 M10.8404633,23.9702123 C10.8404633,24.8136697 10.1548786,25.4962043 9.32001327,25.4962043 C8.48514797,25.4962043 7.79956322,24.8081206 7.79956322,23.9702123 C7.79956322,23.132304 8.48514797,22.4442204 9.32001327,22.4442204 C10.1548786,22.4442204 10.8404633,23.1266995 10.8404633,23.9702123 M7.12503628,17.7774595 L21.9480421,17.7774595 C23.6288305,17.7774595 25,16.4012922 25,14.7143775 L25,8.4550359 L25,8.43283966 L25,8.38844716 C25,8.37734904 25,8.36625092 24.9944711,8.35515279 C24.9944711,8.34405467 24.9889422,8.32740748 24.9889422,8.31630936 C24.9889422,8.30521124 24.9834133,8.29411311 24.9834133,8.28301499 C24.9778844,8.27191687 24.9778844,8.26081874 24.9723555,8.24417156 C24.9668265,8.23307344 24.9668265,8.22197531 24.9612976,8.21087719 C24.9557687,8.19977907 24.9557687,8.18868094 24.9502398,8.17758282 C24.9447109,8.1664847 24.939182,8.15538657 24.9336531,8.13873939 C24.9281242,8.12764126 24.9225953,8.11654314 24.9170664,8.11099408 C24.9115375,8.09989596 24.9060085,8.08879783 24.9004796,8.07769971 C24.8949507,8.06660159 24.8894218,8.06105252 24.8838929,8.0499544 C24.878364,8.03885628 24.8673062,8.02775815 24.8617773,8.01666003 C24.8562484,8.00556191 24.8507194,8.00001285 24.8396616,7.98891472 C24.8341327,7.9778166 24.8230749,7.97226754 24.817546,7.96116941 C24.8120171,7.95007129 24.8010146,7.94452223 24.7954304,7.93342411 C24.7899014,7.92232598 24.7788436,7.91677692 24.77337,7.91122786 C24.7622569,7.90012974 24.756728,7.89458067 24.7457255,7.88348255 C24.7346124,7.87793349 24.7290834,7.86683536 24.7180809,7.8612863 C24.7069678,7.85573724 24.69591,7.84463912 24.6848522,7.83909006 C24.6737944,7.83354099 24.6682654,7.82799193 24.6572076,7.82244287 C24.6461498,7.81689381 24.6351473,7.81134475 24.6240342,7.80024662 C24.6129764,7.79469756 24.6019185,7.7891485 24.5908607,7.78359944 C24.5798029,7.77805038 24.5687451,7.77250132 24.5576873,7.76695225 C24.5466294,7.76140319 24.5355716,7.75585413 24.5245138,7.75030507 C24.513456,7.74475601 24.5023982,7.74475601 24.4913403,7.73920695 C24.4802825,7.73365788 24.4636958,7.72810882 24.452638,7.72810882 C24.4415802,7.72810882 24.4305223,7.72255976 24.4249934,7.72255976 C24.4084067,7.7170107 24.3973489,7.7170107 24.3807622,7.7170107 C24.3752333,7.7170107 24.3697043,7.71146164 24.3586465,7.71146164 L5.57141277,5.10895172 L5.57141277,2.47869648 C5.57141277,2.45095118 5.57141277,2.42320587 5.56588387,2.40100962 C5.56588387,2.39546056 5.56588387,2.3899115 5.56035496,2.37881337 C5.56035496,2.36216619 5.55482605,2.345519 5.55482605,2.32887182 C5.54929714,2.31222463 5.54929714,2.30112651 5.54376823,2.28447933 C5.54376823,2.2733812 5.53823932,2.26783214 5.53823932,2.25673402 C5.53271041,2.24008683 5.5271815,2.22343965 5.52165259,2.20679246 C5.52165259,2.2012434 5.51612368,2.19014528 5.51612368,2.18459622 C5.51059477,2.16794903 5.50506586,2.15685091 5.49400804,2.14020372 C5.48847914,2.13465466 5.48847914,2.12355654 5.48295023,2.11800748 C5.47742132,2.10690935 5.47189241,2.09581123 5.46083459,2.08471311 C5.45530568,2.07361498 5.44977677,2.06806592 5.44424786,2.0569678 C5.43871895,2.04586967 5.43319004,2.04032061 5.42766113,2.02922249 C5.42213222,2.01812437 5.41107441,2.00702624 5.4055455,1.99592812 C5.40001659,1.99037906 5.39448768,1.98483 5.38895877,1.97928093 C5.37790095,1.96818281 5.36684313,1.95708469 5.35578531,1.94598656 C5.3502564,1.9404375 5.34472749,1.93488844 5.33919858,1.92933938 C5.32814077,1.91824126 5.31708295,1.90714313 5.30049622,1.89604501 C5.29496731,1.89049595 5.28390949,1.88494689 5.27838058,1.87939782 C5.26732276,1.8682997 5.25626495,1.86275064 5.24520713,1.85165252 C5.2286204,1.84055439 5.21203367,1.82945627 5.20097585,1.82390721 C5.19544694,1.81835815 5.18991803,1.81835815 5.18438912,1.81280908 C5.16227349,1.80171096 5.13462894,1.79061284 5.1125133,1.77951471 L1.03770716,0.0593055966 C0.656212421,-0.101617192 0.219428587,0.0759527816 0.059090218,0.458838037 C-0.101248151,0.841723292 0.0756769458,1.28009916 0.457171686,1.44102195 L4.07307836,2.97256297 L4.07307836,6.36858871 L4.07307836,6.9068477 L4.07307836,11.0353496 L4.07307836,14.7254756 L4.07307836,19.3866874 C4.07307836,20.9404247 5.23414931,22.227807 6.73248372,22.4220241 C6.46156717,22.8769917 6.3012288,23.4097571 6.3012288,23.9757614 C6.3012288,25.646029 7.65581157,27 9.31448436,27 C10.9731571,27 12.3277399,25.6404799 12.3277399,23.9757614 C12.3277399,23.4208552 12.1784594,22.8936944 11.9130717,22.4497694 L18.6251676,22.4497694 C18.3598352,22.8992434 18.2104994,23.4208552 18.2104994,23.9757614 C18.2104994,25.646029 19.5650822,27 21.223755,27 C22.8824277,27 24.2370105,25.6404799 24.2370105,23.9757614 C24.2370105,22.3110429 22.8824277,20.9515228 21.223755,20.9515228 L7.12503628,20.9515228 C6.26252644,20.9515228 5.56588387,20.2467919 5.56588387,19.3866874 L5.56588387,17.3556753 C6.01925443,17.6220858 6.55555863,17.7774595 7.12503628,17.7774595" id="Fill-1" fill="#FFFFFF" mask="url(#mask-2)"></path>
                </g>
            </g>
        </g>
    </g>
</svg>