<?xml version="1.0" encoding="UTF-8"?>
<svg version="1.1" viewBox="0 0 1824 1200" width="1280" height="1280" xmlns="http://www.w3.org/2000/svg">
<path transform="translate(0)" d="m0 0h1824v1200h-1824z" fill="#FDFDFD"/>
<path transform="translate(754,60)" d="m0 0 11 1 15 4 13 5 11 6 10 9 8 10 8 16 6 20 1 5v8l-11 9-14 11-14 12-10 8-14 12-10 8-13 12-8 7-14 12-15 14-11 9-16 15-13 12-16 16-8 7-16 16-8 7-22 22-7 8-17 17-7 8-16 17-12 13-9 11-11 12-11 14-10 11-20 26-12 16-8 11-16 24-9 14-10 16-7 14-10 19-10 24-7 22-5 23-1 7v28l4 19 4 11v3l9-1 40-8 35-5 34-3h34l24 2 30 5 24 7 23 10 15 9 13 10 15 15 8 11 8 14 7 16 6 20 3 17 1 11v24l-4 27-5 21-9 25-8 16-9 16-14 19-15 16-11 11-14 11-15 10-14 8-25 12-33 11-26 6-22 3-11 1-26 1h-24l-27-1-40-4-39-6-36-8-29-8-29-10-23-10-25-12-20-12-12-8-13-10-11-9-13-12-14-15-10-13-11-17-12-23-8-22-6-25-3-19v-41l3-31 6-35 10-38 11-32 11-26 8-18 10-19 15-27 13-21 16-24 13-19 14-18 10-13 8-10 11-13 9-11 15-16 9-10 7-8 15-16 23-23 8-7 24-24 8-7 15-13 10-9 8-7 28-24 14-11 17-14 14-11 18-14 12-9 19-14 16-12 34-24 23-16 57-38 19-12 14-9 19-12 20-12 21-13 19-12 15-9z" fill="#2F95CC"/>
<path transform="translate(1670,88)" d="m0 0 11 1 15 4 13 5 11 6 12 11 6 7 9 16 9 23 2 7v4l-14 10-16 13-14 11-16 13-11 9-14 12-11 9-14 13-11 9-14 13-11 9-13 12-10 10-8 7-15 15-8 7-12 12-8 7-19 19-7 8-20 20-7 8-16 17-12 13-9 11-11 12-8 10-12 14-9 12-8 10-9 12-14 19-19 29-11 18-9 16-9 17-10 23-9 27-5 24-1 10v22l4 20 5 14 2 1 45-9 34-5 28-3 21-1h26l27 2 25 4 19 5 19 7 16 8 15 10 12 11 10 11 9 14 8 17 6 18 5 25 1 12v23l-2 19-5 24-8 24-9 20-8 14-9 13-10 13-12 13-8 8-14 11-14 10-23 13-25 11-28 9-25 6-25 4-17 2-18 1h-54l-36-3-36-5-31-6-31-8-36-12-26-11-24-12-23-14-16-12-16-13-18-18-9-11-12-17-9-16-7-14-7-19-6-25-3-20-1-11v-31l3-35 6-36 8-32 12-36 12-29 14-29 11-21 14-24 15-23 8-12 12-17 16-21 11-14 9-11 22-26 4-5h2l2-4 8-8 1-2h2l2-4 10-10 7-8 26-26 8-7 21-21 8-7 12-11 8-7 14-12 10-9 11-9 14-12 14-11 16-13 14-11 13-10 21-16 14-10 16-12 20-14 17-12 16-11 54-36 29-19 19-12 24-15 21-13 17-11 19-12z" fill="#2F95CC"/>
<path transform="translate(145,1015)" d="m0 0 7 2 3 3v2h3v3l3-1v2l6 1 6 5 32 16v2l5 1 11 4 1 2 9 2 1 3 6 1 10 5 10 3 14 4v2l9 1 3 2 15 3 4 1 12 2 6 2 13 2 9 2 13 2 12 2 16 2 2 2 13 1 5 2h39l15-1h26l9 2 11-1 3-1 11-1 6-3 16-2v-2l12-2v-2l12-2v-2l10-3 9-4 10-4 22-11 7-4 4-1v-2l5-1 4-4 7-3v4l-12 9-18 11-29 14-33 11-26 6-22 3-11 1-26 1h-24l-27-1-40-4-39-6-36-8-29-8-29-10-23-10-25-12-20-12-12-8-13-10z" fill="#228DCE"/>
<path transform="translate(1070,1049)" d="m0 0 9 3 10 6 3 1 4 4 5 2 14 8 8 2 3 3 5 2v2l6 1 5 3 6 1 1 2 9 3 11 5 9 2 4 2 9 2 5 2 7 2 1 1 19 3 6 2 10 1 6 2 2-1v2h9l12 3 14 2 10 2 8 1 6 2 4-1h10l6 2h51l16-2 2 1h14l6-1h10v-2l7-1 4-1 11-2 2-2 9-2 18-6 16-6 2 1v-2l13-5 9-4 8-4h2l3-3 11-6 14-7 8-7 5-3 2 1-5 6-16 12-15 9-14 8-25 11-28 9-25 6-25 4-17 2-18 1h-54l-36-3-36-5-31-6-31-8-36-12-26-11-24-12-23-14-12-9z" fill="#228DCE"/>
<path transform="translate(1567,1064)" d="m0 0 2 1-5 6-16 12-15 9-14 8-25 11-28 9-25 6-25 4-17 2-18 1h-54l-36-3-36-5-31-6-8-2v-1l10 1 36 7 31 4 23 2 18 1h35l25-1 26-3 5-1v-2l7-1 4-1 11-2 2-2 9-2 18-6 16-6 2 1v-2l13-5 9-4 8-4h2l3-3 11-6 14-7 8-7z" fill="#2790CD"/>
<path transform="translate(641,1049)" d="m0 0 2 1-2 4-14 10-15 9-29 14-33 11-26 6-22 3-11 1-26 1h-24l-27-1-40-4-39-6-36-8-25-7 4-1 34 9 30 6 35 5 31 3 13 1h64l30-3 5-3 8-3 12-1v-2l12-2v-2l12-2v-2l10-3 9-4 10-4 22-11 7-4 4-1v-2l5-1 4-4z" fill="#2890CD"/>
<path transform="translate(519,1100)" d="m0 0m-1 1m-63 1h29l9 2 11-1 3-1h11l-3 2-30 3h-64l-13-1-3-2 17-1h21z" fill="#218CCF"/>
<path transform="translate(1053,628)" d="m0 0 1 2-3 5-8 15-11 22-8 17-5 13-3 6-3 8-3 7-2 5-2 2v-6l11-28 12-26 13-26 7-12z" fill="#258FCE"/>
<path transform="translate(109,648)" d="m0 0 1 3-1 2h-2l-1 7-4 10-2 2-6 17-4 9-3 7-1-2 2-9 7-18 12-27z" fill="#2890CD"/>
<path transform="translate(97,676)" d="m0 0 1 3-5 12-6 14-1-2 2-9 2-6 2-1 4-10z" fill="#238DCE"/>
<path transform="translate(1243,400)" d="m0 0v3l-18 18-2-2 14-14h2v-2z" fill="#218CCF"/>
<path transform="translate(145,1015)" d="m0 0 7 2 3 3v2h3l2 6-4-2-8-6z" fill="#258FCE"/>
<path transform="translate(1030,672)" d="m0 0 1 3-7 14-1 3h-2l1-7 4-9z" fill="#248ECE"/>
<path transform="translate(1567,1064)" d="m0 0 2 1-5 6-9 7-2-1 9-10z" fill="#2790CD"/>
<path transform="translate(1053,628)" d="m0 0 1 2-3 5-8 15-2-1 5-12 3-5z" fill="#248ECE"/>
<path transform="translate(109,648)" d="m0 0 1 3-1 2h-2l-1 7-4 2 3-9 2-4z" fill="#268FCD"/>
<path transform="translate(1043,643)" d="m0 0 1 2-2 5-2 6-4 2 2-6z" fill="#2A92CD"/>
<path transform="translate(1020,689)" d="m0 0 2 3-1 4-5 5 3-10z" fill="#2890CD"/>
</svg>
